<?xml version="1.0" encoding="UTF-8"?>
<svg xmlns="http://www.w3.org/2000/svg" version="1.1" width="32px" height="32px" viewBox="0 0 32 32" style="shape-rendering:geometricPrecision; text-rendering:geometricPrecision; image-rendering:optimizeQuality; fill-rule:evenodd; clip-rule:evenodd">
<!-- Simplified version matching the main logo colors -->
<defs>
  <radialGradient id="cupGradient" cx="50%" cy="50%" r="50%">
    <stop offset="0%" style="stop-color:#faeedc;stop-opacity:1" />
    <stop offset="100%" style="stop-color:#540117;stop-opacity:1" />
  </radialGradient>
</defs>
<rect width="32" height="32" fill="#540117"/>
<circle cx="16" cy="16" r="14" fill="url(#cupGradient)"/>
<!-- Simple coffee cup silhouette -->
<path d="M8 16 L8 14 C8 13 9 12 10 12 L18 12 C19 12 20 13 20 14 L20 16" stroke="#faeedc" stroke-width="1" fill="none"/>
<path d="M8 16 L22 16 C23 16 24 17 24 18 L24 19 C24 20 23 21 22 21 L20 21" stroke="#faeedc" stroke-width="1" fill="none"/>
<path d="M8 16 L8 24 C8 26 10 28 12 28 L16 28 C18 28 20 26 20 24 L20 21" stroke="#faeedc" stroke-width="1" fill="none"/>
<!-- Steam lines -->
<path d="M12 10 C12 9.5 12.5 9 13 9.5 C13.5 10 13 10.5 13 11" stroke="#faeedc" stroke-width="0.8" fill="none"/>
<path d="M16 10 C16 9.5 16.5 9 17 9.5 C17.5 10 17 10.5 17 11" stroke="#faeedc" stroke-width="0.8" fill="none"/>
<path d="M14 8 C14 7.5 14.5 7 15 7.5 C15.5 8 15 8.5 15 9" stroke="#faeedc" stroke-width="0.8" fill="none"/>
</svg>
