<?xml version="1.0" encoding="UTF-8"?>
<!DOCTYPE svg PUBLIC "-//W3C//DTD SVG 1.1//EN" "http://www.w3.org/Graphics/SVG/1.1/DTD/svg11.dtd">
<svg xmlns="http://www.w3.org/2000/svg" version="1.1" width="1024px" height="1024px" style="shape-rendering:geometricPrecision; text-rendering:geometricPrecision; image-rendering:optimizeQuality; fill-rule:evenodd; clip-rule:evenodd" xmlns:xlink="http://www.w3.org/1999/xlink">
<g><path style="opacity:1" fill="#540117" d="M -0.5,-0.5 C 340.833,-0.5 682.167,-0.5 1023.5,-0.5C 1023.5,340.833 1023.5,682.167 1023.5,1023.5C 682.167,1023.5 340.833,1023.5 -0.5,1023.5C -0.5,682.167 -0.5,340.833 -0.5,-0.5 Z"/></g>
<g><path style="opacity:1" fill="#faeedc" d="M 750.5,150.5 C 750.775,163.69 749.442,176.69 746.5,189.5C 745.876,189.083 745.543,188.416 745.5,187.5C 748.3,175.31 749.133,162.977 748,150.5C 739.419,163.984 727.585,172.317 712.5,175.5C 724.706,171.139 735.206,164.139 744,154.5C 745.667,151.833 747.333,149.167 749,146.5C 749.21,148.058 749.71,149.391 750.5,150.5 Z"/></g>
<g><path style="opacity:1" fill="#feefcb" d="M 746.5,189.5 C 745.434,191.701 744.767,194.035 744.5,196.5C 742.25,199.999 740.25,203.665 738.5,207.5C 735.833,209.833 733.167,212.167 730.5,214.5C 730.44,213.957 730.107,213.624 729.5,213.5C 718.022,221.073 705.689,226.739 692.5,230.5C 686.693,233.579 681.026,236.245 675.5,238.5C 680.762,228.583 687.762,220.25 696.5,213.5C 698.807,212.347 701.14,211.18 703.5,210C 686.767,212.035 674.267,220.535 666,235.5C 662.985,240.525 660.818,245.858 659.5,251.5C 657.382,257.865 656.216,264.532 656,271.5C 647.166,248.324 648.832,225.99 661,204.5C 668.89,193.948 679.056,186.448 691.5,182C 698.548,179.928 705.548,177.761 712.5,175.5C 727.585,172.317 739.419,163.984 748,150.5C 749.133,162.977 748.3,175.31 745.5,187.5C 745.543,188.416 745.876,189.083 746.5,189.5 Z"/></g>
<g><path style="opacity:1" fill="#410d13" d="M 744.5,196.5 C 744.767,194.035 745.434,191.701 746.5,189.5C 749.442,176.69 750.775,163.69 750.5,150.5C 751.649,158.114 751.816,167.114 751,177.5C 749.81,184.405 747.81,191.071 745,197.5C 744.601,197.272 744.435,196.938 744.5,196.5 Z"/></g>
<g><path style="opacity:1" fill="#330c0e" d="M 696.5,213.5 C 695.85,213.196 695.183,212.863 694.5,212.5C 676.458,220.541 664.958,234.207 660,253.5C 659.536,252.906 659.369,252.239 659.5,251.5C 660.818,245.858 662.985,240.525 666,235.5C 674.267,220.535 686.767,212.035 703.5,210C 701.14,211.18 698.807,212.347 696.5,213.5 Z"/></g>
<g><path style="opacity:1" fill="#330b0e" d="M 738.5,207.5 C 735.35,212.815 731.017,216.981 725.5,220C 720.579,222.589 715.579,225.089 710.5,227.5C 709.893,227.376 709.56,227.043 709.5,226.5C 716.921,223.288 723.921,219.288 730.5,214.5C 733.167,212.167 735.833,209.833 738.5,207.5 Z"/></g>
<g><path style="opacity:1" fill="#f9eddf" d="M 730.5,214.5 C 723.921,219.288 716.921,223.288 709.5,226.5C 703.868,227.991 698.201,229.325 692.5,230.5C 705.689,226.739 718.022,221.073 729.5,213.5C 730.107,213.624 730.44,213.957 730.5,214.5 Z"/></g>
<g><path style="opacity:1" fill="#feeec7" d="M 598.5,260.5 C 605.415,266.905 612.582,273.905 620,281.5C 624.188,287.234 628.354,292.901 632.5,298.5C 633.833,301.833 635.167,305.167 636.5,308.5C 635.778,308.918 635.278,309.584 635,310.5C 633.964,307.706 632.464,307.206 630.5,309C 630.833,309.333 631.167,309.667 631.5,310C 630.552,310.483 629.552,310.649 628.5,310.5C 628.34,308.801 628.506,307.134 629,305.5C 633.134,306.445 633.134,305.445 629,302.5C 627.615,303.551 626.615,304.884 626,306.5C 625.333,305.167 624.667,305.167 624,306.5C 623.691,305.234 623.191,304.067 622.5,303C 624.878,302.026 624.544,301.359 621.5,301C 623.301,300.683 623.634,300.016 622.5,299C 621.551,298.383 620.718,298.549 620,299.5C 619.5,298 619,296.5 618.5,295C 618.905,294.055 619.572,293.388 620.5,293C 619.167,292.667 617.833,292.333 616.5,292C 616.957,291.586 617.291,291.086 617.5,290.5C 616.088,289.194 614.421,288.36 612.5,288C 613.641,287.259 613.641,286.425 612.5,285.5C 610.831,284.329 609.331,282.996 608,281.5C 606.128,282.068 604.295,282.735 602.5,283.5C 601.614,282.675 601.281,281.675 601.5,280.5C 603.199,280.66 604.866,280.494 606.5,280C 607.517,278.951 607.684,277.784 607,276.5C 606.586,276.957 606.086,277.291 605.5,277.5C 603.256,274.434 600.256,272.767 596.5,272.5C 596.33,271.178 596.663,270.011 597.5,269C 596,268.167 594.833,267 594,265.5C 593.167,266.5 592.333,267.5 591.5,268.5C 591.704,267.471 591.204,266.471 590,265.5C 589.586,265.957 589.086,266.291 588.5,266.5C 586.962,262.611 584.795,261.945 582,264.5C 581.082,262.368 579.749,261.701 578,262.5C 577.316,261.216 577.483,260.049 578.5,259C 577.24,257.887 576.073,257.72 575,258.5C 574.167,257.5 573.333,256.5 572.5,255.5C 571.914,255.709 571.414,256.043 571,256.5C 569.667,255.167 568.333,253.833 567,252.5C 566.333,255.167 565.667,255.167 565,252.5C 562.222,253.685 560.722,252.685 560.5,249.5C 558.181,248.833 555.847,248.666 553.5,249C 554.654,249.914 554.487,250.747 553,251.5C 552.626,250.584 552.126,249.75 551.5,249C 549.253,247.345 546.92,247.012 544.5,248C 542.203,244.87 539.703,244.37 537,246.5C 536,245.5 535,244.5 534,243.5C 532.887,244.711 531.72,244.711 530.5,243.5C 529.833,244.167 529.167,244.833 528.5,245.5C 525.808,241.886 522.974,242.22 520,246.5C 519.138,244.913 518.471,243.246 518,241.5C 516.396,242.649 514.73,242.649 513,241.5C 511.503,242.477 510.003,243.477 508.5,244.5C 507.558,244.392 506.725,244.059 506,243.5C 504.833,245.167 503.667,246.833 502.5,248.5C 501.522,248.023 500.689,247.357 500,246.5C 499.667,246.833 499.333,247.167 499,247.5C 498.136,244.331 496.803,244.665 495,248.5C 492.607,247.251 489.94,246.585 487,246.5C 485.455,249.293 483.288,249.96 480.5,248.5C 477.156,249.167 474.489,250.834 472.5,253.5C 468.94,253.667 466.44,255.334 465,258.5C 464.396,256.314 463.23,256.148 461.5,258C 463.595,258.556 463.762,259.056 462,259.5C 459.742,259.119 457.242,258.953 454.5,259C 455.833,259.667 455.833,260.333 454.5,261C 452.913,261.862 451.246,262.529 449.5,263C 450.451,263.718 450.617,264.551 450,265.5C 449,265.167 448,264.833 447,264.5C 446.027,266.392 445.36,268.392 445,270.5C 444.085,269.672 443.419,268.672 443,267.5C 441.887,268.76 441.72,269.927 442.5,271C 435.919,270.577 431.753,273.744 430,280.5C 427.246,280.922 424.246,280.922 421,280.5C 420.51,281.793 420.343,283.127 420.5,284.5C 419.5,284.5 418.5,284.5 417.5,284.5C 418.818,286.261 420.152,288.761 421.5,292C 419.693,293.236 417.693,293.57 415.5,293C 416.328,293.915 417.328,294.581 418.5,295C 416.088,298.084 413.755,300.417 411.5,302C 411.833,302.333 412.167,302.667 412.5,303C 410.083,304.144 409.416,305.81 410.5,308C 409.552,308.483 408.552,308.649 407.5,308.5C 407.439,310.592 406.439,312.092 404.5,313C 405.167,313.333 405.833,313.667 406.5,314C 405.207,314.49 403.873,314.657 402.5,314.5C 401.425,318.843 400.091,323.176 398.5,327.5C 399.529,327.296 400.529,327.796 401.5,329C 397.833,330 397.5,331.667 400.5,334C 398.834,336.48 398.001,339.313 398,342.5C 396.833,344 395.667,345.5 394.5,347C 395.5,347.333 396.5,347.667 397.5,348C 396.276,350.671 394.609,353.004 392.5,355C 393.833,355.667 394.833,356.667 395.5,358C 393.578,359.46 392.911,361.127 393.5,363C 394.5,364.667 395.5,366.333 396.5,368C 396.572,370.176 396.238,372.176 395.5,374C 397.98,374.915 398.647,376.415 397.5,378.5C 399.707,381.147 399.54,383.813 397,386.5C 396.577,385.044 395.744,384.544 394.5,385C 394.276,389.965 395.61,395.131 398.5,400.5C 399.79,401.408 401.123,401.241 402.5,400C 402.167,399.667 401.833,399.333 401.5,399C 402.5,398.333 403.5,398.333 404.5,399C 403.359,399.741 403.359,400.575 404.5,401.5C 405.776,402.645 407.109,402.645 408.5,401.5C 410.364,405.252 413.031,407.418 416.5,408C 415.833,408.333 415.167,408.667 414.5,409C 415.585,411.172 416.919,413.172 418.5,415C 417.672,415.915 416.672,416.581 415.5,417C 419.1,418.031 420.1,420.198 418.5,423.5C 420.554,425.194 422.888,426.361 425.5,427C 423.717,428.067 423.217,429.567 424,431.5C 433.213,439.523 443.046,446.689 453.5,453C 455.445,452.872 457.278,453.038 459,453.5C 459.333,452.167 459.667,450.833 460,449.5C 461.067,450.191 462.234,450.691 463.5,451C 462.576,451.85 462.576,452.85 463.5,454C 462.978,454.95 462.311,455.784 461.5,456.5C 466.656,460.476 472.156,461.143 478,458.5C 479.667,459.5 481,460.833 482,462.5C 482.718,461.549 483.551,461.383 484.5,462C 483.29,463.039 482.29,464.206 481.5,465.5C 477.757,464.466 474.09,463.132 470.5,461.5C 469.893,461.624 469.56,461.957 469.5,462.5C 457.711,457.442 446.711,451.109 436.5,443.5C 422.501,433.001 410.335,420.668 400,406.5C 393.831,394.845 389.998,382.511 388.5,369.5C 385.929,344.584 390.762,321.251 403,299.5C 422.293,266.915 450.627,246.582 488,238.5C 528.06,230.545 564.893,237.879 598.5,260.5 Z"/></g>
<g><path style="opacity:1" fill="#feb07f" d="M 771.5,236.5 C 771.5,239.5 771.5,242.5 771.5,245.5C 770.732,246.263 770.232,247.263 770,248.5C 769.821,337.843 769.321,427.176 768.5,516.5C 768.507,518.369 768.84,520.036 769.5,521.5C 767,540.502 763.167,559.169 758,577.5C 754.241,589.676 749.407,601.343 743.5,612.5C 734.235,629.355 723.235,645.021 710.5,659.5C 676.074,695.221 634.407,718.221 585.5,728.5C 584.903,727.861 584.07,727.528 583,727.5C 574.863,729.234 566.696,730.401 558.5,731C 568.649,726.428 578.316,721.095 587.5,715C 587.272,714.601 586.938,714.435 586.5,714.5C 586.842,713.662 587.508,713.328 588.5,713.5C 588.435,713.938 588.601,714.272 589,714.5C 597.251,709.738 604.751,704.071 611.5,697.5C 621.5,688.167 631.167,678.5 640.5,668.5C 640.435,668.938 640.601,669.272 641,669.5C 645.981,664.198 650.481,658.531 654.5,652.5C 655.086,652.709 655.586,653.043 656,653.5C 659.641,651.456 661.474,648.456 661.5,644.5C 662.5,644.5 663.5,644.5 664.5,644.5C 664.657,643.127 664.49,641.793 664,640.5C 662.982,641.706 662.482,641.373 662.5,639.5C 663.89,635.719 665.557,632.053 667.5,628.5C 667.376,627.893 667.043,627.56 666.5,627.5C 666.66,625.847 667.326,624.514 668.5,623.5C 668.369,624.239 668.536,624.906 669,625.5C 672.079,620.855 674.412,615.855 676,610.5C 676.414,610.957 676.914,611.291 677.5,611.5C 679.043,608.914 680.709,606.414 682.5,604C 681.732,600.597 682.732,597.597 685.5,595C 684.465,593.493 684.632,591.993 686,590.5C 686.333,590.833 686.667,591.167 687,591.5C 687.651,589.765 687.485,588.098 686.5,586.5C 687.718,586.891 688.552,586.224 689,584.5C 688.714,579.989 689.881,575.655 692.5,571.5C 691.975,570.808 691.308,570.308 690.5,570C 692.83,568.925 694.163,567.425 694.5,565.5C 693.242,566.016 692.242,565.35 691.5,563.5C 695.659,559.841 696.659,555.675 694.5,551C 695.602,548.137 696.602,545.304 697.5,542.5C 698.423,535.987 698.423,529.487 697.5,523C 698.311,520.895 699.311,518.895 700.5,517C 700.095,516.055 699.428,515.388 698.5,515C 699.308,514.692 699.975,514.192 700.5,513.5C 699.359,512.575 699.359,511.741 700.5,511C 699.833,508.667 699.167,506.333 698.5,504C 698.833,503.667 699.167,503.333 699.5,503C 696.922,500.843 696.922,499.677 699.5,499.5C 696.702,497.434 697.035,495.934 700.5,495C 699.833,494.667 699.167,494.333 698.5,494C 699.083,492.381 699.083,490.548 698.5,488.5C 701.12,486.535 700.786,485.035 697.5,484C 699.891,483.309 699.891,482.309 697.5,481C 698.833,479.667 698.833,478.333 697.5,477C 700.167,476.333 700.167,475.667 697.5,475C 699.045,473.312 700.045,471.312 700.5,469C 699.167,468.333 699.167,467.667 700.5,467C 698.699,466.683 698.366,466.016 699.5,465C 697.122,464.026 697.456,463.359 700.5,463C 700.377,460.789 700.377,458.622 700.5,456.5C 699.833,456.167 699.167,455.833 698.5,455.5C 699.575,452.562 699.741,449.562 699,446.5C 698.667,446.833 698.333,447.167 698,447.5C 697.333,444.833 697.333,442.167 698,439.5C 698.914,440.654 699.747,440.487 700.5,439C 699.833,438 699.167,437 698.5,436C 699.574,435.261 700.241,434.261 700.5,433C 699.385,431.765 699.385,430.598 700.5,429.5C 699.752,427.668 698.752,426.001 697.5,424.5C 698.687,423.481 699.687,422.314 700.5,421C 699.22,418.868 699.22,416.702 700.5,414.5C 700.023,413.522 699.357,412.689 698.5,412C 700.218,408.258 700.551,404.425 699.5,400.5C 701.973,398.758 701.973,396.925 699.5,395C 699.665,393.163 700.332,391.163 701.5,389C 700,386.379 699.666,383.712 700.5,381C 700,380.5 699.5,380 699,379.5C 698.809,381.708 698.309,383.708 697.5,385.5C 697.831,354.329 697.498,323.329 696.5,292.5C 697.341,286.455 698.508,280.455 700,274.5C 701.172,270.142 703.339,266.475 706.5,263.5C 717.828,252.663 731.161,245.163 746.5,241C 745.906,240.536 745.239,240.369 744.5,240.5C 753.163,237.789 762.163,236.456 771.5,236.5 Z"/></g>
<g><path style="opacity:1" fill="#fcce91" d="M 744.5,240.5 C 745.239,240.369 745.906,240.536 746.5,241C 731.161,245.163 717.828,252.663 706.5,263.5C 710.37,257.134 715.703,252.301 722.5,249C 729.324,244.891 736.658,242.058 744.5,240.5 Z"/></g>
<g><path style="opacity:1" fill="#faefde" d="M 598.5,260.5 C 613.049,270.378 624.383,283.044 632.5,298.5C 628.354,292.901 624.188,287.234 620,281.5C 612.582,273.905 605.415,266.905 598.5,260.5 Z"/></g>
<g><path style="opacity:1" fill="#faefdc" d="M 632.5,298.5 C 641.327,310.658 645.327,324.325 644.5,339.5C 643.769,350.631 639.103,359.631 630.5,366.5C 634.202,362.28 637.369,357.613 640,352.5C 644.95,337.244 643.783,322.577 636.5,308.5C 635.167,305.167 633.833,301.833 632.5,298.5 Z"/></g>
<g><path style="opacity:1" fill="#360c0e" d="M 614.5,374.5 C 620.43,372.868 625.764,370.202 630.5,366.5C 639.103,359.631 643.769,350.631 644.5,339.5C 645.319,336.695 645.819,333.695 646,330.5C 647.617,353.043 637.783,368.043 616.5,375.5C 615.584,375.457 614.917,375.124 614.5,374.5 Z"/></g>
<g><path style="opacity:1" fill="#3f000e" d="M 771.5,236.5 C 772.117,236.611 772.617,236.944 773,237.5C 773.667,326.167 773.667,414.833 773,503.5C 772.667,506.833 772.333,510.167 772,513.5C 771.503,511.19 771.337,508.857 771.5,506.5C 771.5,419.5 771.5,332.5 771.5,245.5C 771.5,242.5 771.5,239.5 771.5,236.5 Z"/></g>
<g><path style="opacity:1" fill="#f6e3d1" d="M 567.5,340.5 C 569.859,351.037 575.192,359.871 583.5,367C 592.972,372.122 602.972,374.622 613.5,374.5C 612.209,374.263 611.209,374.596 610.5,375.5C 602.461,376.193 594.795,374.86 587.5,371.5C 587.5,370.833 587.167,370.5 586.5,370.5C 575.131,363.776 568.797,353.776 567.5,340.5 Z"/></g>
<g><path style="opacity:1" fill="#fdcd92" d="M 696.5,292.5 C 697.498,323.329 697.831,354.329 697.5,385.5C 696.93,431.523 696.264,475.523 695.5,517.5C 695.176,442.471 695.509,367.471 696.5,292.5 Z"/></g>
<g><path style="opacity:1" fill="#f8e8d7" d="M 475.5,327.5 C 463.593,348.387 466.926,366.554 485.5,382C 490.071,385.421 494.737,388.588 499.5,391.5C 480.978,384.143 469.978,370.643 466.5,351C 466.876,342.022 469.876,334.189 475.5,327.5 Z"/></g>
<g><path style="opacity:1" fill="#290606" d="M 587.5,371.5 C 594.795,374.86 602.461,376.193 610.5,375.5C 607.911,376.67 603.244,376.836 596.5,376C 592.965,375.337 589.965,373.837 587.5,371.5 Z"/></g>
<g><path style="opacity:1" fill="#feedc1" d="M 311.5,261.5 C 315.834,269.67 318.668,278.336 320,287.5C 320.5,352.499 320.667,417.499 320.5,482.5C 319.119,507.547 323.119,531.547 332.5,554.5C 332.785,556.288 332.452,557.955 331.5,559.5C 330.749,558.624 330.249,557.624 330,556.5C 329.097,557.701 327.931,558.535 326.5,559C 328.569,559.324 328.902,560.158 327.5,561.5C 329.128,564.587 331.128,567.42 333.5,570C 332.918,573.711 332.918,577.211 333.5,580.5C 334.381,581.971 335.714,582.804 337.5,583C 336.833,583.333 336.167,583.667 335.5,584C 336.479,586.403 337.979,587.236 340,586.5C 342.355,589.628 341.855,590.795 338.5,590C 339.634,591.016 339.301,591.683 337.5,592C 339.888,593.861 342.554,595.194 345.5,596C 343.099,596.805 343.266,597.638 346,598.5C 346.333,598.167 346.667,597.833 347,597.5C 349.652,600.524 351.819,603.357 353.5,606C 352.142,608.752 352.809,609.252 355.5,607.5C 357.036,608.249 358.369,609.249 359.5,610.5C 360.711,609.726 360.711,608.893 359.5,608C 360.275,606.77 361.275,606.437 362.5,607C 366.349,610.682 370.016,614.515 373.5,618.5C 372.488,620.864 371.155,622.198 369.5,622.5C 370.767,624.371 370.767,626.204 369.5,628C 371.134,628.494 372.801,628.66 374.5,628.5C 374.351,627.448 374.517,626.448 375,625.5C 375.151,628.56 376.485,630.893 379,632.5C 379.333,632.167 379.667,631.833 380,631.5C 382.5,633.333 384.667,635.5 386.5,638C 387.784,638.684 388.951,638.517 390,637.5C 391.044,638.623 391.71,639.956 392,641.5C 392.333,641.167 392.667,640.833 393,640.5C 395.635,644.44 398.801,645.774 402.5,644.5C 403.604,645.631 403.271,646.465 401.5,647C 403.676,647.163 405.509,647.996 407,649.5C 408.494,648.253 409.994,648.253 411.5,649.5C 410.911,651.373 411.578,653.04 413.5,654.5C 414.883,651.924 415.717,652.258 416,655.5C 416.333,654.833 416.667,654.167 417,653.5C 418.113,654.711 419.28,654.711 420.5,653.5C 421.231,657.172 422.731,657.839 425,655.5C 426.499,657.756 428.166,657.756 430,655.5C 434.685,658.321 439.851,660.155 445.5,661C 447.156,664.65 449.322,665.15 452,662.5C 453.791,664.513 455.125,664.513 456,662.5C 456.605,664.481 457.605,664.815 459,663.5C 461.237,664.056 463.237,665.056 465,666.5C 467.615,663.93 470.282,663.93 473,666.5C 473.617,665.551 473.451,664.718 472.5,664C 473,663.833 473.5,663.667 474,663.5C 475.693,665.901 477.693,667.234 480,667.5C 480.75,666.874 481.584,666.374 482.5,666C 482.167,665.667 481.833,665.333 481.5,665C 482.784,664.316 483.951,664.483 485,665.5C 485.317,663.699 485.984,663.366 487,664.5C 487.359,661.456 488.026,661.122 489,663.5C 489.85,662.576 490.85,662.576 492,663.5C 493.581,661.153 494.914,661.153 496,663.5C 497.688,662.675 497.855,661.675 496.5,660.5C 497.242,659.713 498.075,659.047 499,658.5C 500.996,658.996 502.663,659.996 504,661.5C 505.487,660.845 506.653,659.845 507.5,658.5C 510.714,657.956 513.714,656.956 516.5,655.5C 519.981,656.313 523.314,656.313 526.5,655.5C 526.313,654.183 526.98,652.85 528.5,651.5C 531.58,653.105 534.08,652.438 536,649.5C 536.414,649.957 536.914,650.291 537.5,650.5C 537.296,649.471 537.796,648.471 539,647.5C 539.333,648.167 539.667,648.833 540,649.5C 541.039,646.987 542.372,644.653 544,642.5C 544.333,642.833 544.667,643.167 545,643.5C 545.483,642.552 545.649,641.552 545.5,640.5C 547.591,640.682 549.591,640.348 551.5,639.5C 553,637.167 554.5,634.833 556,632.5C 556.333,633.833 556.667,635.167 557,636.5C 559.085,634.918 560.585,632.918 561.5,630.5C 563.017,631.911 564.351,631.744 565.5,630C 564.289,628.887 564.289,627.72 565.5,626.5C 567.046,625.316 568.713,624.316 570.5,623.5C 569.45,621.898 570.117,621.065 572.5,621C 572.167,620.667 571.833,620.333 571.5,620C 572.416,619.626 573.25,619.126 574,618.5C 575.331,615.166 577.165,612.166 579.5,609.5C 579.926,605.46 581.259,601.793 583.5,598.5C 584.651,597.269 585.817,597.269 587,598.5C 587.023,595.949 586.523,593.449 585.5,591C 590.029,589.352 590.363,587.352 586.5,585C 587.449,584.383 588.282,584.549 589,585.5C 589.318,583.939 590.151,582.772 591.5,582C 590.74,580.165 590.406,578.165 590.5,576C 591.794,575.894 592.461,574.894 592.5,573C 592.245,571.674 591.578,570.674 590.5,570C 592.167,569 593.833,568 595.5,567C 594.376,566.751 593.376,566.251 592.5,565.5C 592.61,563.902 592.943,562.235 593.5,560.5C 593.197,555.948 591.864,551.781 589.5,548C 590.448,547.517 591.448,547.351 592.5,547.5C 592.509,545.692 592.009,544.025 591,542.5C 590.465,544.271 589.631,544.604 588.5,543.5C 589.52,541.568 589.687,539.568 589,537.5C 588.047,539.373 586.88,539.706 585.5,538.5C 579.699,518.364 567.366,503.697 548.5,494.5C 542.173,489.728 535.173,485.894 527.5,483C 511.873,477.629 496.539,471.796 481.5,465.5C 482.29,464.206 483.29,463.039 484.5,462C 483.551,461.383 482.718,461.549 482,462.5C 481,460.833 479.667,459.5 478,458.5C 472.156,461.143 466.656,460.476 461.5,456.5C 462.311,455.784 462.978,454.95 463.5,454C 462.576,452.85 462.576,451.85 463.5,451C 462.234,450.691 461.067,450.191 460,449.5C 459.667,450.833 459.333,452.167 459,453.5C 457.278,453.038 455.445,452.872 453.5,453C 443.046,446.689 433.213,439.523 424,431.5C 423.217,429.567 423.717,428.067 425.5,427C 422.888,426.361 420.554,425.194 418.5,423.5C 420.1,420.198 419.1,418.031 415.5,417C 416.672,416.581 417.672,415.915 418.5,415C 416.919,413.172 415.585,411.172 414.5,409C 415.167,408.667 415.833,408.333 416.5,408C 413.031,407.418 410.364,405.252 408.5,401.5C 407.109,402.645 405.776,402.645 404.5,401.5C 403.359,400.575 403.359,399.741 404.5,399C 403.5,398.333 402.5,398.333 401.5,399C 401.833,399.333 402.167,399.667 402.5,400C 401.123,401.241 399.79,401.408 398.5,400.5C 395.61,395.131 394.276,389.965 394.5,385C 395.744,384.544 396.577,385.044 397,386.5C 399.54,383.813 399.707,381.147 397.5,378.5C 398.647,376.415 397.98,374.915 395.5,374C 396.238,372.176 396.572,370.176 396.5,368C 395.5,366.333 394.5,364.667 393.5,363C 392.911,361.127 393.578,359.46 395.5,358C 394.833,356.667 393.833,355.667 392.5,355C 394.609,353.004 396.276,350.671 397.5,348C 396.5,347.667 395.5,347.333 394.5,347C 395.667,345.5 396.833,344 398,342.5C 398.001,339.313 398.834,336.48 400.5,334C 397.5,331.667 397.833,330 401.5,329C 400.529,327.796 399.529,327.296 398.5,327.5C 400.091,323.176 401.425,318.843 402.5,314.5C 403.873,314.657 405.207,314.49 406.5,314C 405.833,313.667 405.167,313.333 404.5,313C 406.439,312.092 407.439,310.592 407.5,308.5C 408.552,308.649 409.552,308.483 410.5,308C 409.416,305.81 410.083,304.144 412.5,303C 412.167,302.667 411.833,302.333 411.5,302C 413.755,300.417 416.088,298.084 418.5,295C 417.328,294.581 416.328,293.915 415.5,293C 417.693,293.57 419.693,293.236 421.5,292C 420.152,288.761 418.818,286.261 417.5,284.5C 418.5,284.5 419.5,284.5 420.5,284.5C 420.343,283.127 420.51,281.793 421,280.5C 424.246,280.922 427.246,280.922 430,280.5C 431.753,273.744 435.919,270.577 442.5,271C 441.72,269.927 441.887,268.76 443,267.5C 443.419,268.672 444.085,269.672 445,270.5C 445.36,268.392 446.027,266.392 447,264.5C 448,264.833 449,265.167 450,265.5C 450.617,264.551 450.451,263.718 449.5,263C 451.246,262.529 452.913,261.862 454.5,261C 455.833,260.333 455.833,259.667 454.5,259C 457.242,258.953 459.742,259.119 462,259.5C 463.762,259.056 463.595,258.556 461.5,258C 463.23,256.148 464.396,256.314 465,258.5C 466.44,255.334 468.94,253.667 472.5,253.5C 474.489,250.834 477.156,249.167 480.5,248.5C 483.288,249.96 485.455,249.293 487,246.5C 489.94,246.585 492.607,247.251 495,248.5C 496.803,244.665 498.136,244.331 499,247.5C 499.333,247.167 499.667,246.833 500,246.5C 500.689,247.357 501.522,248.023 502.5,248.5C 503.667,246.833 504.833,245.167 506,243.5C 506.725,244.059 507.558,244.392 508.5,244.5C 510.003,243.477 511.503,242.477 513,241.5C 514.73,242.649 516.396,242.649 518,241.5C 518.471,243.246 519.138,244.913 520,246.5C 522.974,242.22 525.808,241.886 528.5,245.5C 529.167,244.833 529.833,244.167 530.5,243.5C 531.72,244.711 532.887,244.711 534,243.5C 535,244.5 536,245.5 537,246.5C 539.703,244.37 542.203,244.87 544.5,248C 546.92,247.012 549.253,247.345 551.5,249C 552.126,249.75 552.626,250.584 553,251.5C 554.487,250.747 554.654,249.914 553.5,249C 555.847,248.666 558.181,248.833 560.5,249.5C 560.722,252.685 562.222,253.685 565,252.5C 565.667,255.167 566.333,255.167 567,252.5C 568.333,253.833 569.667,255.167 571,256.5C 571.414,256.043 571.914,255.709 572.5,255.5C 573.333,256.5 574.167,257.5 575,258.5C 576.073,257.72 577.24,257.887 578.5,259C 577.483,260.049 577.316,261.216 578,262.5C 579.749,261.701 581.082,262.368 582,264.5C 584.795,261.945 586.962,262.611 588.5,266.5C 589.086,266.291 589.586,265.957 590,265.5C 591.204,266.471 591.704,267.471 591.5,268.5C 592.333,267.5 593.167,266.5 594,265.5C 594.833,267 596,268.167 597.5,269C 596.663,270.011 596.33,271.178 596.5,272.5C 600.256,272.767 603.256,274.434 605.5,277.5C 606.086,277.291 606.586,276.957 607,276.5C 607.684,277.784 607.517,278.951 606.5,280C 604.866,280.494 603.199,280.66 601.5,280.5C 601.281,281.675 601.614,282.675 602.5,283.5C 604.295,282.735 606.128,282.068 608,281.5C 609.331,282.996 610.831,284.329 612.5,285.5C 613.641,286.425 613.641,287.259 612.5,288C 614.421,288.36 616.088,289.194 617.5,290.5C 617.291,291.086 616.957,291.586 616.5,292C 617.833,292.333 619.167,292.667 620.5,293C 619.572,293.388 618.905,294.055 618.5,295C 619,296.5 619.5,298 620,299.5C 620.718,298.549 621.551,298.383 622.5,299C 623.634,300.016 623.301,300.683 621.5,301C 624.544,301.359 624.878,302.026 622.5,303C 623.191,304.067 623.691,305.234 624,306.5C 624.667,305.167 625.333,305.167 626,306.5C 626.615,304.884 627.615,303.551 629,302.5C 633.134,305.445 633.134,306.445 629,305.5C 628.506,307.134 628.34,308.801 628.5,310.5C 629.552,310.649 630.552,310.483 631.5,310C 631.167,309.667 630.833,309.333 630.5,309C 632.464,307.206 633.964,307.706 635,310.5C 635.278,309.584 635.778,308.918 636.5,308.5C 643.783,322.577 644.95,337.244 640,352.5C 637.369,357.613 634.202,362.28 630.5,366.5C 625.764,370.202 620.43,372.868 614.5,374.5C 614.167,374.5 613.833,374.5 613.5,374.5C 602.972,374.622 592.972,372.122 583.5,367C 575.192,359.871 569.859,351.037 567.5,340.5C 561.68,325.068 550.68,315.402 534.5,311.5C 533.167,310.833 531.833,310.167 530.5,309.5C 515.604,305.278 500.937,307.445 486.5,316C 485.748,316.671 485.414,317.504 485.5,318.5C 482.192,321.471 478.859,324.471 475.5,327.5C 469.876,334.189 466.876,342.022 466.5,351C 469.978,370.643 480.978,384.143 499.5,391.5C 521.771,402.203 544.438,412.036 567.5,421C 593.643,432.474 616.477,448.641 636,469.5C 637.421,471.405 638.588,473.405 639.5,475.5C 649.176,489.324 655.676,504.658 659,521.5C 659.934,522.858 660.768,524.192 661.5,525.5C 661.263,526.791 661.596,527.791 662.5,528.5C 665.921,557.121 663.254,585.121 654.5,612.5C 651.516,619.094 648.516,625.761 645.5,632.5C 630.048,664.619 606.715,689.285 575.5,706.5C 567.775,711.521 559.442,715.187 550.5,717.5C 530.494,723.767 510.161,728.1 489.5,730.5C 479.582,731.474 469.582,731.807 459.5,731.5C 445.912,730.716 432.579,728.383 419.5,724.5C 406.086,720.636 392.753,716.136 379.5,711C 369.542,705.853 359.542,701.02 349.5,696.5C 332.971,683.981 317.304,670.314 302.5,655.5C 292.289,644.091 283.289,631.758 275.5,618.5C 261.042,591.458 251.375,562.792 246.5,532.5C 247.56,528.628 247.393,524.628 246,520.5C 245.667,503.5 245.333,486.5 245,469.5C 244.835,399.43 244.335,330.096 243.5,261.5C 242.506,252.014 242.173,242.348 242.5,232.5C 263.844,232.916 283.511,238.75 301.5,250C 305.439,253.429 308.772,257.263 311.5,261.5 Z"/></g>
<g><path style="opacity:1" fill="#470e16" d="M 388.5,369.5 C 389.998,382.511 393.831,394.845 400,406.5C 410.335,420.668 422.501,433.001 436.5,443.5C 436.631,444.239 436.464,444.906 436,445.5C 422.027,435.527 410.027,423.527 400,409.5C 392.079,397.12 388.245,383.786 388.5,369.5 Z"/></g>
<g><path style="opacity:1" fill="#360004" d="M 322.5,323.5 C 322.5,312.5 322.5,301.5 322.5,290.5C 322.351,289.448 322.517,288.448 323,287.5C 323.333,288.833 323.667,290.167 324,291.5C 324.667,365.5 324.667,439.5 324,513.5C 323.833,449.999 323.333,386.665 322.5,323.5 Z"/></g>
<g><path style="opacity:1" fill="#480f17" d="M 534.5,311.5 C 550.68,315.402 561.68,325.068 567.5,340.5C 568.797,353.776 575.131,363.776 586.5,370.5C 586.44,371.043 586.107,371.376 585.5,371.5C 573.381,364.271 566.548,353.605 565,339.5C 558.749,324.916 547.916,315.749 532.5,312C 533.094,311.536 533.761,311.369 534.5,311.5 Z"/></g>
<g><path style="opacity:1" fill="#fdfbd9" d="M 311.5,261.5 C 314.997,265.148 317.497,269.481 319,274.5C 320.785,279.686 321.618,285.02 321.5,290.5C 321.832,354.669 321.499,418.669 320.5,482.5C 320.667,417.499 320.5,352.499 320,287.5C 318.668,278.336 315.834,269.67 311.5,261.5 Z"/></g>
<g><path style="opacity:1" fill="#fbf3e1" d="M 530.5,309.5 C 514.23,306.487 499.23,309.487 485.5,318.5C 485.414,317.504 485.748,316.671 486.5,316C 500.937,307.445 515.604,305.278 530.5,309.5 Z"/></g>
<g><path style="opacity:1" fill="#fceed4" d="M 321.5,290.5 C 321.833,290.5 322.167,290.5 322.5,290.5C 322.5,301.5 322.5,312.5 322.5,323.5C 322.333,387.168 322.5,450.834 323,514.5C 325.565,528.093 329.065,541.427 333.5,554.5C 333.167,554.5 332.833,554.5 332.5,554.5C 323.119,531.547 319.119,507.547 320.5,482.5C 321.499,418.669 321.832,354.669 321.5,290.5 Z"/></g>
<g><path style="opacity:1" fill="#fec287" d="M 771.5,245.5 C 771.5,332.5 771.5,419.5 771.5,506.5C 770.513,511.32 769.847,516.32 769.5,521.5C 768.84,520.036 768.507,518.369 768.5,516.5C 769.321,427.176 769.821,337.843 770,248.5C 770.232,247.263 770.732,246.263 771.5,245.5 Z"/></g>
<g><path style="opacity:1" fill="#330001" d="M 243.5,509.5 C 243.5,511.167 243.5,512.833 243.5,514.5C 243.662,516.527 243.495,518.527 243,520.5C 242.667,517.833 242.333,515.167 242,512.5C 241.333,433.5 241.333,354.5 242,275.5C 242.167,353.668 242.667,431.668 243.5,509.5 Z"/></g>
<g><path style="opacity:1" fill="#fdf9df" d="M 246.5,532.5 C 245.729,526.331 244.729,520.331 243.5,514.5C 243.5,512.833 243.5,511.167 243.5,509.5C 243.5,426.833 243.5,344.167 243.5,261.5C 244.335,330.096 244.835,399.43 245,469.5C 245.333,486.5 245.667,503.5 246,520.5C 247.393,524.628 247.56,528.628 246.5,532.5 Z"/></g>
<g><path style="opacity:1" fill="#f7e8d5" d="M 469.5,462.5 C 469.56,461.957 469.893,461.624 470.5,461.5C 474.09,463.132 477.757,464.466 481.5,465.5C 496.539,471.796 511.873,477.629 527.5,483C 535.173,485.894 542.173,489.728 548.5,494.5C 543.167,492.167 537.833,489.833 532.5,487.5C 529.965,485.983 527.298,484.65 524.5,483.5C 511.369,478.269 498.036,473.602 484.5,469.5C 479.488,467.375 474.488,465.042 469.5,462.5 Z"/></g>
<g><path style="opacity:1" fill="#390a0f" d="M 484.5,469.5 C 498.036,473.602 511.369,478.269 524.5,483.5C 524.631,484.239 524.464,484.906 524,485.5C 510.57,480.204 497.07,475.037 483.5,470C 483.728,469.601 484.062,469.435 484.5,469.5 Z"/></g>
<g><path style="opacity:1" fill="#fdb885" d="M 668.5,623.5 C 682.649,589.404 691.649,554.071 695.5,517.5C 696.264,475.523 696.93,431.523 697.5,385.5C 698.309,383.708 698.809,381.708 699,379.5C 699.5,380 700,380.5 700.5,381C 699.666,383.712 700,386.379 701.5,389C 700.332,391.163 699.665,393.163 699.5,395C 701.973,396.925 701.973,398.758 699.5,400.5C 700.551,404.425 700.218,408.258 698.5,412C 699.357,412.689 700.023,413.522 700.5,414.5C 699.22,416.702 699.22,418.868 700.5,421C 699.687,422.314 698.687,423.481 697.5,424.5C 698.752,426.001 699.752,427.668 700.5,429.5C 699.385,430.598 699.385,431.765 700.5,433C 700.241,434.261 699.574,435.261 698.5,436C 699.167,437 699.833,438 700.5,439C 699.747,440.487 698.914,440.654 698,439.5C 697.333,442.167 697.333,444.833 698,447.5C 698.333,447.167 698.667,446.833 699,446.5C 699.741,449.562 699.575,452.562 698.5,455.5C 699.167,455.833 699.833,456.167 700.5,456.5C 700.377,458.622 700.377,460.789 700.5,463C 697.456,463.359 697.122,464.026 699.5,465C 698.366,466.016 698.699,466.683 700.5,467C 699.167,467.667 699.167,468.333 700.5,469C 700.045,471.312 699.045,473.312 697.5,475C 700.167,475.667 700.167,476.333 697.5,477C 698.833,478.333 698.833,479.667 697.5,481C 699.891,482.309 699.891,483.309 697.5,484C 700.786,485.035 701.12,486.535 698.5,488.5C 699.083,490.548 699.083,492.381 698.5,494C 699.167,494.333 699.833,494.667 700.5,495C 697.035,495.934 696.702,497.434 699.5,499.5C 696.922,499.677 696.922,500.843 699.5,503C 699.167,503.333 698.833,503.667 698.5,504C 699.167,506.333 699.833,508.667 700.5,511C 699.359,511.741 699.359,512.575 700.5,513.5C 699.975,514.192 699.308,514.692 698.5,515C 699.428,515.388 700.095,516.055 700.5,517C 699.311,518.895 698.311,520.895 697.5,523C 698.423,529.487 698.423,535.987 697.5,542.5C 696.602,545.304 695.602,548.137 694.5,551C 696.659,555.675 695.659,559.841 691.5,563.5C 692.242,565.35 693.242,566.016 694.5,565.5C 694.163,567.425 692.83,568.925 690.5,570C 691.308,570.308 691.975,570.808 692.5,571.5C 689.881,575.655 688.714,579.989 689,584.5C 688.552,586.224 687.718,586.891 686.5,586.5C 687.485,588.098 687.651,589.765 687,591.5C 686.667,591.167 686.333,590.833 686,590.5C 684.632,591.993 684.465,593.493 685.5,595C 682.732,597.597 681.732,600.597 682.5,604C 680.709,606.414 679.043,608.914 677.5,611.5C 676.914,611.291 676.414,610.957 676,610.5C 674.412,615.855 672.079,620.855 669,625.5C 668.536,624.906 668.369,624.239 668.5,623.5 Z"/></g>
<g><path style="opacity:1" fill="#36090c" d="M 532.5,487.5 C 537.833,489.833 543.167,492.167 548.5,494.5C 559.782,501.448 569.115,510.448 576.5,521.5C 571.764,516.25 566.43,510.75 560.5,505C 551.092,498.19 541.759,492.357 532.5,487.5 Z"/></g>
<g><path style="opacity:1" fill="#f7e4d4" d="M 639.5,475.5 C 645.471,481.415 649.971,488.415 653,496.5C 656.952,505.855 659.786,515.522 661.5,525.5C 660.768,524.192 659.934,522.858 659,521.5C 655.676,504.658 649.176,489.324 639.5,475.5 Z"/></g>
<g><path style="opacity:1" fill="#feb280" d="M 396.5,509.5 C 409.186,507.604 420.853,510.104 431.5,517C 434.192,519.557 436.525,522.391 438.5,525.5C 425.954,528.028 416.787,535.028 411,546.5C 407.97,555.609 403.803,564.109 398.5,572C 382.982,582.29 371.815,578.79 365,561.5C 359.933,541.476 366.099,525.976 383.5,515C 387.923,513.115 392.256,511.281 396.5,509.5 Z"/></g>
<g><path style="opacity:1" fill="#f9ecd9" d="M 548.5,494.5 C 567.366,503.697 579.699,518.364 585.5,538.5C 585.5,539.167 585.5,539.833 585.5,540.5C 584.015,536.61 582.515,532.61 581,528.5C 579.974,525.761 578.474,523.428 576.5,521.5C 569.115,510.448 559.782,501.448 548.5,494.5 Z"/></g>
<g><path style="opacity:1" fill="#430b11" d="M 529.5,581.5 C 530.844,579.815 530.677,578.148 529,576.5C 528.667,569.167 528.333,561.833 528,554.5C 524.292,545.398 518.125,543.231 509.5,548C 507.819,551.466 506.819,551.3 506.5,547.5C 502.743,547.071 499.243,547.737 496,549.5C 495.259,552.112 496.259,553.778 499,554.5C 499.831,561.856 499.665,569.189 498.5,576.5C 497.817,576.863 497.15,577.196 496.5,577.5C 497.73,570.266 497.73,562.599 496.5,554.5C 492.362,553.275 489.696,554.775 488.5,559C 488.833,559.333 489.167,559.667 489.5,560C 488.376,560.249 487.376,560.749 486.5,561.5C 485.48,564.605 484.313,567.605 483,570.5C 482.536,569.906 482.369,569.239 482.5,568.5C 483.893,563.82 485.393,559.154 487,554.5C 488.522,552.978 490.022,551.478 491.5,550C 491.355,549.228 491.022,548.561 490.5,548C 486.848,547.501 483.182,547.335 479.5,547.5C 480.871,546.213 482.705,545.547 485,545.5C 486.833,545.667 488.667,545.833 490.5,546C 491.399,547.236 492.566,548.07 494,548.5C 496.82,546.921 499.82,545.921 503,545.5C 506.117,547.728 508.95,547.561 511.5,545C 519.694,542.405 525.527,544.905 529,552.5C 529.333,559.833 529.667,567.167 530,574.5C 532.251,577.017 533.084,580.017 532.5,583.5C 527.489,583.666 522.489,583.499 517.5,583C 521.688,582.824 525.688,582.324 529.5,581.5 Z"/></g>
<g><path style="opacity:1" fill="#faeacd" d="M 546.5,566.5 C 546.345,571.023 548.345,574.189 552.5,576C 554.833,576.667 557.167,576.667 559.5,576C 561.426,575.578 562.426,574.411 562.5,572.5C 564.922,569.554 566.589,569.887 567.5,573.5C 561.547,583.065 553.547,585.065 543.5,579.5C 535.543,571.519 534.376,562.519 540,552.5C 545.028,547.048 551.194,545.215 558.5,547C 564.787,547.953 566.954,551.453 565,557.5C 563.274,558.576 561.441,558.743 559.5,558C 558.118,552.6 554.784,550.6 549.5,552C 545.527,556.284 544.527,561.117 546.5,566.5 Z"/></g>
<g><path style="opacity:1" fill="#3f0d12" d="M 455.5,547.5 C 456.835,549.797 458.668,551.797 461,553.5C 463.232,558.735 465.732,563.735 468.5,568.5C 469.673,572.355 471.006,576.188 472.5,580C 472.257,580.902 471.923,581.735 471.5,582.5C 467.949,572.715 463.783,563.048 459,553.5C 457.667,552.833 456.333,552.167 455,551.5C 454.203,549.257 454.37,547.923 455.5,547.5 Z"/></g>
<g><path style="opacity:1" fill="#fbedd1" d="M 442.5,551.5 C 436.665,549.161 434.165,551.161 435,557.5C 439.172,560.56 443.672,563.06 448.5,565C 452.344,573.143 450.011,578.643 441.5,581.5C 436.156,581.666 430.823,581.499 425.5,581C 424.019,577.179 424.352,573.512 426.5,570C 427.5,569.333 428.5,569.333 429.5,570C 430.539,573.014 432.205,575.514 434.5,577.5C 435.952,578.302 437.618,578.802 439.5,579C 437.5,579.667 435.5,579.667 433.5,579C 431.302,576.417 429.469,573.584 428,570.5C 425.729,573.12 425.062,576.12 426,579.5C 432.64,581.109 439.14,580.609 445.5,578C 449.791,574.552 450.458,570.552 447.5,566C 442.635,564.055 438.135,561.555 434,558.5C 433.577,559.956 432.744,560.456 431.5,560C 431.833,559.667 432.167,559.333 432.5,559C 430.173,557.768 429.006,556.268 429,554.5C 427.72,554.613 426.887,555.28 426.5,556.5C 427.333,558.167 428.167,559.833 429,561.5C 431.352,563.03 433.519,564.697 435.5,566.5C 427.276,564.722 424.11,559.722 426,551.5C 431.645,545.271 438.479,543.771 446.5,547C 450.653,550.857 450.486,554.357 446,557.5C 444.251,555.777 443.084,553.777 442.5,551.5 Z"/></g>
<g><path style="opacity:1" fill="#f8ecdc" d="M 474.5,569.5 C 475.794,571.355 475.461,571.689 473.5,570.5C 469.996,563.503 467.662,556.17 466.5,548.5C 463.482,548.335 460.482,548.502 457.5,549C 459.286,549.785 460.786,550.951 462,552.5C 464.665,557.669 466.832,563.002 468.5,568.5C 465.732,563.735 463.232,558.735 461,553.5C 458.668,551.797 456.835,549.797 455.5,547.5C 459.622,547.34 463.956,547.34 468.5,547.5C 468.481,549.06 468.148,550.56 467.5,552C 469.985,557.798 472.318,563.632 474.5,569.5 Z"/></g>
<g><path style="opacity:1" fill="#400e13" d="M 442.5,551.5 C 442.649,552.552 442.483,553.552 442,554.5C 440.507,552.44 438.674,552.107 436.5,553.5C 435.674,554.451 435.508,555.451 436,556.5C 440.549,558.859 445.049,561.359 449.5,564C 454.528,571.749 452.861,577.749 444.5,582C 443.251,582.74 442.251,582.573 441.5,581.5C 450.011,578.643 452.344,573.143 448.5,565C 443.672,563.06 439.172,560.56 435,557.5C 434.165,551.161 436.665,549.161 442.5,551.5 Z"/></g>
<g><path style="opacity:1" fill="#fbeac7" d="M 529.5,581.5 C 525.167,581.5 520.833,581.5 516.5,581.5C 516.569,578.916 517.735,576.916 520,575.5C 520.821,568.654 520.654,561.987 519.5,555.5C 516.355,550.522 512.521,550.188 508,554.5C 507.5,561.158 507.334,567.825 507.5,574.5C 508.685,575.857 509.685,577.357 510.5,579C 510.355,579.772 510.022,580.439 509.5,581C 504.845,581.499 500.179,581.666 495.5,581.5C 495.433,580.041 495.766,578.708 496.5,577.5C 497.15,577.196 497.817,576.863 498.5,576.5C 499.665,569.189 499.831,561.856 499,554.5C 496.259,553.778 495.259,552.112 496,549.5C 499.243,547.737 502.743,547.071 506.5,547.5C 506.819,551.3 507.819,551.466 509.5,548C 518.125,543.231 524.292,545.398 528,554.5C 528.333,561.833 528.667,569.167 529,576.5C 530.677,578.148 530.844,579.815 529.5,581.5 Z"/></g>
<g><path style="opacity:1" fill="#2e1111" d="M 519.5,555.5 C 519.565,555.938 519.399,556.272 519,556.5C 515.667,552.5 512.333,552.5 509,556.5C 508.828,562.681 508.328,568.681 507.5,574.5C 507.334,567.825 507.5,561.158 508,554.5C 512.521,550.188 516.355,550.522 519.5,555.5 Z"/></g>
<g><path style="opacity:1" fill="#fbedcf" d="M 479.5,547.5 C 483.182,547.335 486.848,547.501 490.5,548C 491.022,548.561 491.355,549.228 491.5,550C 490.022,551.478 488.522,552.978 487,554.5C 485.393,559.154 483.893,563.82 482.5,568.5C 481.193,572.081 479.859,575.747 478.5,579.5C 476.36,588.958 471.36,596.458 463.5,602C 457.476,605.151 454.143,603.318 453.5,596.5C 455.186,594.984 457.019,593.65 459,592.5C 460.7,593.927 462.533,594.76 464.5,595C 468.265,591.636 470.599,587.469 471.5,582.5C 471.923,581.735 472.257,580.902 472.5,580C 471.006,576.188 469.673,572.355 468.5,568.5C 466.832,563.002 464.665,557.669 462,552.5C 460.786,550.951 459.286,549.785 457.5,549C 460.482,548.502 463.482,548.335 466.5,548.5C 467.662,556.17 469.996,563.503 473.5,570.5C 475.461,571.689 475.794,571.355 474.5,569.5C 475.497,569.53 476.164,569.03 476.5,568C 478.464,563.273 480.131,558.44 481.5,553.5C 480.349,551.675 479.682,549.675 479.5,547.5 Z"/></g>
<g><path style="opacity:1" fill="#3c0e13" d="M 654.5,612.5 C 663.254,585.121 665.921,557.121 662.5,528.5C 664.148,531.658 664.982,536.324 665,542.5C 667.122,566.961 663.788,590.628 655,613.5C 654.601,613.272 654.435,612.938 654.5,612.5 Z"/></g>
<g><path style="opacity:1" fill="#faefdb" d="M 540.5,638.5 C 571.496,617.616 586.829,588.283 586.5,550.5C 589.405,574.302 581.905,597.635 564,620.5C 558.761,626.41 552.928,631.577 546.5,636C 547.308,636.308 547.975,636.808 548.5,637.5C 545.815,637.815 543.149,638.148 540.5,638.5 Z"/></g>
<g><path style="opacity:1" fill="#37080e" d="M 743.5,612.5 C 744.043,612.56 744.376,612.893 744.5,613.5C 735.083,630.745 723.916,646.745 711,661.5C 710.536,660.906 710.369,660.239 710.5,659.5C 723.235,645.021 734.235,629.355 743.5,612.5 Z"/></g>
<g><path style="opacity:1" fill="#430e14" d="M 275.5,618.5 C 283.289,631.758 292.289,644.091 302.5,655.5C 308.797,663.133 315.464,670.466 322.5,677.5C 302.773,661.458 286.773,642.124 274.5,619.5C 274.624,618.893 274.957,618.56 275.5,618.5 Z"/></g>
<g><path style="opacity:1" fill="#feeec6" d="M 332.5,554.5 C 332.833,554.5 333.167,554.5 333.5,554.5C 352.624,605.293 388.291,637.96 440.5,652.5C 444.283,654.357 448.95,655.523 454.5,656C 475.413,658.565 495.913,656.731 516,650.5C 516.772,650.645 517.439,650.978 518,651.5C 521.877,649.615 525.377,647.281 528.5,644.5C 532.182,641.992 536.182,639.992 540.5,638.5C 543.149,638.148 545.815,637.815 548.5,637.5C 547.975,636.808 547.308,636.308 546.5,636C 552.928,631.577 558.761,626.41 564,620.5C 581.905,597.635 589.405,574.302 586.5,550.5C 585.521,547.375 585.187,544.042 585.5,540.5C 585.5,539.833 585.5,539.167 585.5,538.5C 586.88,539.706 588.047,539.373 589,537.5C 589.687,539.568 589.52,541.568 588.5,543.5C 589.631,544.604 590.465,544.271 591,542.5C 592.009,544.025 592.509,545.692 592.5,547.5C 591.448,547.351 590.448,547.517 589.5,548C 591.864,551.781 593.197,555.948 593.5,560.5C 592.943,562.235 592.61,563.902 592.5,565.5C 593.376,566.251 594.376,566.751 595.5,567C 593.833,568 592.167,569 590.5,570C 591.578,570.674 592.245,571.674 592.5,573C 592.461,574.894 591.794,575.894 590.5,576C 590.406,578.165 590.74,580.165 591.5,582C 590.151,582.772 589.318,583.939 589,585.5C 588.282,584.549 587.449,584.383 586.5,585C 590.363,587.352 590.029,589.352 585.5,591C 586.523,593.449 587.023,595.949 587,598.5C 585.817,597.269 584.651,597.269 583.5,598.5C 581.259,601.793 579.926,605.46 579.5,609.5C 577.165,612.166 575.331,615.166 574,618.5C 573.25,619.126 572.416,619.626 571.5,620C 571.833,620.333 572.167,620.667 572.5,621C 570.117,621.065 569.45,621.898 570.5,623.5C 568.713,624.316 567.046,625.316 565.5,626.5C 564.289,627.72 564.289,628.887 565.5,630C 564.351,631.744 563.017,631.911 561.5,630.5C 560.585,632.918 559.085,634.918 557,636.5C 556.667,635.167 556.333,633.833 556,632.5C 554.5,634.833 553,637.167 551.5,639.5C 549.591,640.348 547.591,640.682 545.5,640.5C 545.649,641.552 545.483,642.552 545,643.5C 544.667,643.167 544.333,642.833 544,642.5C 542.372,644.653 541.039,646.987 540,649.5C 539.667,648.833 539.333,648.167 539,647.5C 537.796,648.471 537.296,649.471 537.5,650.5C 536.914,650.291 536.414,649.957 536,649.5C 534.08,652.438 531.58,653.105 528.5,651.5C 526.98,652.85 526.313,654.183 526.5,655.5C 523.314,656.313 519.981,656.313 516.5,655.5C 513.714,656.956 510.714,657.956 507.5,658.5C 506.653,659.845 505.487,660.845 504,661.5C 502.663,659.996 500.996,658.996 499,658.5C 498.075,659.047 497.242,659.713 496.5,660.5C 497.855,661.675 497.688,662.675 496,663.5C 494.914,661.153 493.581,661.153 492,663.5C 490.85,662.576 489.85,662.576 489,663.5C 488.026,661.122 487.359,661.456 487,664.5C 485.984,663.366 485.317,663.699 485,665.5C 483.951,664.483 482.784,664.316 481.5,665C 481.833,665.333 482.167,665.667 482.5,666C 481.584,666.374 480.75,666.874 480,667.5C 477.693,667.234 475.693,665.901 474,663.5C 473.5,663.667 473,663.833 472.5,664C 473.451,664.718 473.617,665.551 473,666.5C 470.282,663.93 467.615,663.93 465,666.5C 463.237,665.056 461.237,664.056 459,663.5C 457.605,664.815 456.605,664.481 456,662.5C 455.125,664.513 453.791,664.513 452,662.5C 449.322,665.15 447.156,664.65 445.5,661C 439.851,660.155 434.685,658.321 430,655.5C 428.166,657.756 426.499,657.756 425,655.5C 422.731,657.839 421.231,657.172 420.5,653.5C 419.28,654.711 418.113,654.711 417,653.5C 416.667,654.167 416.333,654.833 416,655.5C 415.717,652.258 414.883,651.924 413.5,654.5C 411.578,653.04 410.911,651.373 411.5,649.5C 409.994,648.253 408.494,648.253 407,649.5C 405.509,647.996 403.676,647.163 401.5,647C 403.271,646.465 403.604,645.631 402.5,644.5C 398.801,645.774 395.635,644.44 393,640.5C 392.667,640.833 392.333,641.167 392,641.5C 391.71,639.956 391.044,638.623 390,637.5C 388.951,638.517 387.784,638.684 386.5,638C 384.667,635.5 382.5,633.333 380,631.5C 379.667,631.833 379.333,632.167 379,632.5C 376.485,630.893 375.151,628.56 375,625.5C 374.517,626.448 374.351,627.448 374.5,628.5C 372.801,628.66 371.134,628.494 369.5,628C 370.767,626.204 370.767,624.371 369.5,622.5C 371.155,622.198 372.488,620.864 373.5,618.5C 370.016,614.515 366.349,610.682 362.5,607C 361.275,606.437 360.275,606.77 359.5,608C 360.711,608.893 360.711,609.726 359.5,610.5C 358.369,609.249 357.036,608.249 355.5,607.5C 352.809,609.252 352.142,608.752 353.5,606C 351.819,603.357 349.652,600.524 347,597.5C 346.667,597.833 346.333,598.167 346,598.5C 343.266,597.638 343.099,596.805 345.5,596C 342.554,595.194 339.888,593.861 337.5,592C 339.301,591.683 339.634,591.016 338.5,590C 341.855,590.795 342.355,589.628 340,586.5C 337.979,587.236 336.479,586.403 335.5,584C 336.167,583.667 336.833,583.333 337.5,583C 335.714,582.804 334.381,581.971 333.5,580.5C 332.918,577.211 332.918,573.711 333.5,570C 331.128,567.42 329.128,564.587 327.5,561.5C 328.902,560.158 328.569,559.324 326.5,559C 327.931,558.535 329.097,557.701 330,556.5C 330.249,557.624 330.749,558.624 331.5,559.5C 332.452,557.955 332.785,556.288 332.5,554.5 Z"/></g>
<g><path style="opacity:1" fill="#30070a" d="M 478.5,579.5 C 477.76,587.81 474.093,594.976 467.5,601C 464.548,603.309 461.214,604.809 457.5,605.5C 453.273,602.836 451.94,599.836 453.5,596.5C 454.143,603.318 457.476,605.151 463.5,602C 471.36,596.458 476.36,588.958 478.5,579.5 Z"/></g>
<g><path style="opacity:1" fill="#250706" d="M 567.5,573.5 C 568.465,574.721 568.298,576.054 567,577.5C 561.842,583.344 555.342,585.177 547.5,583C 545.5,582 543.5,581 541.5,580C 542.094,579.536 542.761,579.369 543.5,579.5C 553.547,585.065 561.547,583.065 567.5,573.5 Z"/></g>
<g><path style="opacity:1" fill="#4b1c1d" d="M 562.5,572.5 C 562.426,574.411 561.426,575.578 559.5,576C 557.167,576.667 554.833,576.667 552.5,576C 548.345,574.189 546.345,571.023 546.5,566.5C 546.369,565.761 546.536,565.094 547,564.5C 548.636,574.488 553.636,576.821 562,571.5C 562.399,571.728 562.565,572.062 562.5,572.5 Z"/></g>
<g><path style="opacity:1" fill="#fdecc4" d="M 434.5,577.5 C 438.509,578.314 441.176,576.814 442.5,573C 440.935,569.933 438.602,567.766 435.5,566.5C 433.519,564.697 431.352,563.03 429,561.5C 428.167,559.833 427.333,558.167 426.5,556.5C 426.887,555.28 427.72,554.613 429,554.5C 429.006,556.268 430.173,557.768 432.5,559C 432.167,559.333 431.833,559.667 431.5,560C 432.744,560.456 433.577,559.956 434,558.5C 438.135,561.555 442.635,564.055 447.5,566C 450.458,570.552 449.791,574.552 445.5,578C 439.14,580.609 432.64,581.109 426,579.5C 425.062,576.12 425.729,573.12 428,570.5C 429.469,573.584 431.302,576.417 433.5,579C 435.5,579.667 437.5,579.667 439.5,579C 437.618,578.802 435.952,578.302 434.5,577.5 Z"/></g>
<g><path style="opacity:1" fill="#fdc18a" d="M 666.5,627.5 C 667.043,627.56 667.376,627.893 667.5,628.5C 665.557,632.053 663.89,635.719 662.5,639.5C 662.482,641.373 662.982,641.706 664,640.5C 664.49,641.793 664.657,643.127 664.5,644.5C 663.5,644.5 662.5,644.5 661.5,644.5C 661.474,648.456 659.641,651.456 656,653.5C 655.586,653.043 655.086,652.709 654.5,652.5C 650.481,658.531 645.981,664.198 641,669.5C 640.601,669.272 640.435,668.938 640.5,668.5C 650.747,655.903 659.413,642.236 666.5,627.5 Z"/></g>
<g><path style="opacity:1" fill="#fbf1db" d="M 528.5,644.5 C 525.377,647.281 521.877,649.615 518,651.5C 517.439,650.978 516.772,650.645 516,650.5C 495.913,656.731 475.413,658.565 454.5,656C 448.95,655.523 444.283,654.357 440.5,652.5C 470.664,658.604 499.997,655.937 528.5,644.5 Z"/></g>
<g><path style="opacity:1" fill="#310a0b" d="M 645.5,632.5 C 646.573,633.251 646.74,634.251 646,635.5C 629.822,666.679 606.488,691.012 576,708.5C 575.536,707.906 575.369,707.239 575.5,706.5C 606.715,689.285 630.048,664.619 645.5,632.5 Z"/></g>
<g><path style="opacity:1" fill="#360a0c" d="M 787.5,679.5 C 794.091,679.594 796.924,682.927 796,689.5C 792.044,699.556 784.877,702.723 774.5,699C 773.244,698.583 772.577,697.75 772.5,696.5C 780.674,701.503 787.508,700.169 793,692.5C 794.318,689.594 794.652,686.594 794,683.5C 792.887,681.671 791.387,680.837 789.5,681C 788.718,683.74 788.218,686.574 788,689.5C 786.152,692.041 783.652,693.041 780.5,692.5C 782.357,687.959 784.691,683.625 787.5,679.5 Z"/></g>
<g><path style="opacity:1" fill="#fceecf" d="M 221.5,690.5 C 220.664,685.406 221.998,681.073 225.5,677.5C 232.876,671.774 239.709,672.441 246,679.5C 246.667,682.5 246.667,685.5 246,688.5C 244.817,689.731 243.651,689.731 242.5,688.5C 241.556,680.168 237.556,678.335 230.5,683C 228.653,685.579 228.153,688.412 229,691.5C 232.425,693.52 235.925,695.186 239.5,696.5C 238.841,699.824 236.841,701.157 233.5,700.5C 227.412,699.751 223.412,696.417 221.5,690.5 Z"/></g>
<g><path style="opacity:1" fill="#fbefd2" d="M 787.5,679.5 C 784.691,683.625 782.357,687.959 780.5,692.5C 783.652,693.041 786.152,692.041 788,689.5C 788.218,686.574 788.718,683.74 789.5,681C 791.387,680.837 792.887,681.671 794,683.5C 794.652,686.594 794.318,689.594 793,692.5C 787.508,700.169 780.674,701.503 772.5,696.5C 768.654,692.294 766.987,687.294 767.5,681.5C 771.784,673.156 778.117,671.323 786.5,676C 787.337,677.011 787.67,678.178 787.5,679.5 Z"/></g>
<g><path style="opacity:1" fill="#491316" d="M 775.5,679.5 C 777.665,679.116 779.332,679.783 780.5,681.5C 779.487,684.203 777.987,686.536 776,688.5C 773.942,687.942 772.775,686.609 772.5,684.5C 773.092,682.577 774.092,680.911 775.5,679.5 Z"/></g>
<g><path style="opacity:1" fill="#4c0914" d="M 265.5,702.5 C 259.797,694.228 252.463,692.394 243.5,697C 241.192,699.128 239.526,701.628 238.5,704.5C 237.686,706.631 237.186,708.964 237,711.5C 236.223,708.571 236.39,705.737 237.5,703C 228.19,703.134 222.856,698.968 221.5,690.5C 223.412,696.417 227.412,699.751 233.5,700.5C 236.841,701.157 238.841,699.824 239.5,696.5C 235.925,695.186 232.425,693.52 229,691.5C 228.153,688.412 228.653,685.579 230.5,683C 237.556,678.335 241.556,680.168 242.5,688.5C 243.651,689.731 244.817,689.731 246,688.5C 246.667,685.5 246.667,682.5 246,679.5C 239.709,672.441 232.876,671.774 225.5,677.5C 224.957,677.44 224.624,677.107 224.5,676.5C 230.711,670.452 237.378,669.952 244.5,675C 248.324,680.128 249.657,685.795 248.5,692C 252.423,692.793 256.256,692.626 260,691.5C 261.61,695.277 263.443,698.944 265.5,702.5 Z"/></g>
<g><path style="opacity:1" fill="#f8ead7" d="M 302.5,655.5 C 317.304,670.314 332.971,683.981 349.5,696.5C 342.805,692.156 336.138,687.823 329.5,683.5C 327.761,680.757 325.427,678.757 322.5,677.5C 315.464,670.466 308.797,663.133 302.5,655.5 Z"/></g>
<g><path style="opacity:1" fill="#3a0b10" d="M 329.5,683.5 C 336.138,687.823 342.805,692.156 349.5,696.5C 356.334,700.752 363.334,704.752 370.5,708.5C 369.749,709.573 368.749,709.74 367.5,709C 355.497,703.003 344.163,696.003 333.5,688C 331.808,686.693 330.475,685.193 329.5,683.5 Z"/></g>
<g><path style="opacity:1" fill="#fdd192" d="M 611.5,697.5 C 604.751,704.071 597.251,709.738 589,714.5C 588.601,714.272 588.435,713.938 588.5,713.5C 596.161,708.174 603.828,702.841 611.5,697.5 Z"/></g>
<g><path style="opacity:1" fill="#fcedcd" d="M 766.5,693.5 C 764.778,696.611 763.944,699.945 764,703.5C 767.349,706.682 770.516,710.015 773.5,713.5C 771.772,715.226 769.772,716.559 767.5,717.5C 764.48,714.811 761.48,712.144 758.5,709.5C 756.883,706.048 754.383,703.381 751,701.5C 749.311,693.377 751.644,692.377 758,698.5C 758.21,695.766 759.044,693.266 760.5,691C 763.34,690.034 765.34,690.867 766.5,693.5 Z"/></g>
<g><path style="opacity:1" fill="#f7e8d6" d="M 349.5,696.5 C 359.542,701.02 369.542,705.853 379.5,711C 392.753,716.136 406.086,720.636 419.5,724.5C 402.396,721.576 386.062,716.243 370.5,708.5C 363.334,704.752 356.334,700.752 349.5,696.5 Z"/></g>
<g><path style="opacity:1" fill="#370c0f" d="M 767.5,681.5 C 766.987,687.294 768.654,692.294 772.5,696.5C 770.983,696.489 769.816,695.823 769,694.5C 767.304,696.56 766.137,698.893 765.5,701.5C 767.739,705.247 770.573,708.58 774,711.5C 774.825,713.701 774.325,715.534 772.5,717C 769.923,718.25 767.257,718.584 764.5,718C 762.255,715.269 760.255,712.436 758.5,709.5C 761.48,712.144 764.48,714.811 767.5,717.5C 769.772,716.559 771.772,715.226 773.5,713.5C 770.516,710.015 767.349,706.682 764,703.5C 763.944,699.945 764.778,696.611 766.5,693.5C 766.265,688.879 766.598,684.879 767.5,681.5 Z"/></g>
<g><path style="opacity:1" fill="#fbebcc" d="M 265.5,702.5 C 265.648,715.522 259.315,721.356 246.5,720C 243.669,718.334 241.336,716.168 239.5,713.5C 238.597,710.609 238.264,707.609 238.5,704.5C 239.526,701.628 241.192,699.128 243.5,697C 252.463,692.394 259.797,694.228 265.5,702.5 Z"/></g>
<g><path style="opacity:1" fill="#350b0c" d="M 256.5,702.5 C 254.46,702.564 252.127,702.731 249.5,703C 246.136,705.729 245.803,708.729 248.5,712C 253.469,711.865 256.469,709.365 257.5,704.5C 256.932,712.602 253.099,714.936 246,711.5C 244.52,704.325 247.353,700.825 254.5,701C 255.416,701.278 256.082,701.778 256.5,702.5 Z"/></g>
<g><path style="opacity:1" fill="#550216" d="M 256.5,702.5 C 257.338,702.842 257.672,703.508 257.5,704.5C 256.469,709.365 253.469,711.865 248.5,712C 245.803,708.729 246.136,705.729 249.5,703C 252.127,702.731 254.46,702.564 256.5,702.5 Z"/></g>
<g><path style="opacity:1" fill="#fbecce" d="M 276.5,716.5 C 279.463,717.63 282.63,719.63 286,722.5C 287.373,724.695 287.706,727.029 287,729.5C 283.625,735.085 280.125,740.585 276.5,746C 272.04,745.898 270.373,743.731 271.5,739.5C 274.137,736.011 276.637,732.345 279,728.5C 279.664,723.504 277.498,721.67 272.5,723C 269.266,726.145 266.266,729.478 263.5,733C 260.447,734.072 258.447,733.072 257.5,730C 262.153,724.011 266.819,718.011 271.5,712C 274.838,711.5 276.505,713 276.5,716.5 Z"/></g>
<g><path style="opacity:1" fill="#faf4e0" d="M 550.5,717.5 C 547.375,719.225 544.042,720.725 540.5,722C 529.404,724.694 518.404,727.194 507.5,729.5C 501.523,730.165 495.523,730.498 489.5,730.5C 510.161,728.1 530.494,723.767 550.5,717.5 Z"/></g>
<g><path style="opacity:1" fill="#3d0a10" d="M 265.5,702.5 C 266.638,705.304 266.805,708.304 266,711.5C 261.998,716.921 257.998,721.587 254,725.5C 253,724.167 252,724.167 251,725.5C 246.855,722.415 242.855,719.082 239,715.5C 238.308,714.563 238.475,713.897 239.5,713.5C 241.336,716.168 243.669,718.334 246.5,720C 259.315,721.356 265.648,715.522 265.5,702.5 Z"/></g>
<g><path style="opacity:1" fill="#fbc78d" d="M 586.5,714.5 C 586.938,714.435 587.272,714.601 587.5,715C 578.316,721.095 568.649,726.428 558.5,731C 566.696,730.401 574.863,729.234 583,727.5C 584.07,727.528 584.903,727.861 585.5,728.5C 573.614,731.061 561.614,732.561 549.5,733C 562.139,727.347 574.472,721.181 586.5,714.5 Z"/></g>
<g><path style="opacity:1" fill="#3a0d10" d="M 733.5,749.5 C 735.567,749.468 736.9,748.468 737.5,746.5C 735.508,742.526 733.008,738.859 730,735.5C 729.031,732.672 729.697,730.338 732,728.5C 732.49,727.207 732.657,725.873 732.5,724.5C 732.435,724.062 732.601,723.728 733,723.5C 733.333,724.167 733.667,724.833 734,725.5C 734.278,724.584 734.778,723.918 735.5,723.5C 739.893,735.368 747.56,738.201 758.5,732C 759.883,730.729 760.883,729.229 761.5,727.5C 762.302,726.048 762.802,724.382 763,722.5C 763.119,731.065 758.786,736.065 750,737.5C 743.139,736.974 738.139,733.641 735,727.5C 731.891,729.386 730.891,732.053 732,735.5C 734.631,739.265 737.131,743.098 739.5,747C 738.66,748.767 737.327,750.101 735.5,751C 733.052,751.853 732.386,751.353 733.5,749.5 Z"/></g>
<g><path style="opacity:1" fill="#faecd1" d="M 761.5,727.5 C 760.883,729.229 759.883,730.729 758.5,732C 747.56,738.201 739.893,735.368 735.5,723.5C 735.518,712.646 740.851,708.146 751.5,710C 755.017,711.484 756.851,713.984 757,717.5C 753.585,721.422 749.751,724.756 745.5,727.5C 752.292,730.51 756.125,728.177 757,720.5C 758.333,719.167 759.667,719.167 761,720.5C 761.497,722.81 761.663,725.143 761.5,727.5 Z"/></g>
<g><path style="opacity:1" fill="#451215" d="M 744.5,714.5 C 747.022,714.128 749.022,714.961 750.5,717C 747.971,719.029 745.304,720.862 742.5,722.5C 741.28,722.113 740.613,721.28 740.5,720C 741.65,718.019 742.984,716.186 744.5,714.5 Z"/></g>
<g><path style="opacity:1" fill="#fcedcf" d="M 732.5,724.5 C 732.657,725.873 732.49,727.207 732,728.5C 729.697,730.338 729.031,732.672 730,735.5C 733.008,738.859 735.508,742.526 737.5,746.5C 736.9,748.468 735.567,749.468 733.5,749.5C 731.284,748.797 729.451,747.464 728,745.5C 724.603,740.946 721.436,736.279 718.5,731.5C 719.355,727.476 721.188,726.809 724,729.5C 724.81,723.432 727.643,721.765 732.5,724.5 Z"/></g>
<g><path style="opacity:1" fill="#4a0812" d="M 311.5,743.5 C 311.768,745.099 311.434,746.432 310.5,747.5C 309.798,740.471 305.798,736.804 298.5,736.5C 299.158,732.323 297.492,730.823 293.5,732C 288.858,738.12 284.858,744.62 281.5,751.5C 282.15,754.004 283.817,755.337 286.5,755.5C 287.85,756.65 287.684,757.317 286,757.5C 282.226,756.555 280.06,754.221 279.5,750.5C 277.123,750.784 274.956,750.784 273,750.5C 272.453,747.487 271.286,744.82 269.5,742.5C 269.667,741.5 269.833,740.5 270,739.5C 270.69,738.262 271.19,738.262 271.5,739.5C 270.373,743.731 272.04,745.898 276.5,746C 280.125,740.585 283.625,735.085 287,729.5C 287.706,727.029 287.373,724.695 286,722.5C 282.63,719.63 279.463,717.63 276.5,716.5C 279.16,715.653 281.826,715.153 284.5,715C 283.328,715.419 282.328,716.085 281.5,717C 283.624,718.122 285.457,719.622 287,721.5C 288.247,724.329 289.747,726.995 291.5,729.5C 293.826,729.1 296.159,729.6 298.5,731C 300.037,732.11 300.703,733.61 300.5,735.5C 305.817,735.984 309.483,738.65 311.5,743.5 Z"/></g>
<g><path style="opacity:1" fill="#360609" d="M 507.5,729.5 C 513.208,729.492 513.541,729.992 508.5,731C 489.865,733.635 471.198,733.969 452.5,732C 454.81,731.503 457.143,731.337 459.5,731.5C 469.582,731.807 479.582,731.474 489.5,730.5C 495.523,730.498 501.523,730.165 507.5,729.5 Z"/></g>
<g><path style="opacity:1" fill="#370d11" d="M 715.5,738.5 C 715.897,737.475 716.563,737.308 717.5,738C 722.645,742.78 725.145,748.614 725,755.5C 722.476,762.179 717.643,765.512 710.5,765.5C 713.066,763.561 716.066,762.061 719.5,761C 723.046,757.548 724.213,753.382 723,748.5C 721.209,744.561 718.709,741.228 715.5,738.5 Z"/></g>
<g><path style="opacity:1" fill="#470a12" d="M 299.5,765.5 C 296.208,766.439 294.208,764.939 293.5,761C 295.976,757.016 297.643,753.016 298.5,749C 297.833,748.833 297.167,748.667 296.5,748.5C 294.952,750.376 292.952,751.376 290.5,751.5C 290.719,752.675 290.386,753.675 289.5,754.5C 288.571,755.55 287.905,755.55 287.5,754.5C 290.106,749.567 293.439,745.233 297.5,741.5C 302.013,741.895 303.513,744.229 302,748.5C 299.562,752.377 297.395,756.377 295.5,760.5C 296.095,762.761 297.429,764.428 299.5,765.5 Z"/></g>
<g><path style="opacity:1" fill="#fbefd1" d="M 310.5,747.5 C 307.767,753.298 304.767,758.965 301.5,764.5C 300.833,764.833 300.167,765.167 299.5,765.5C 297.429,764.428 296.095,762.761 295.5,760.5C 297.395,756.377 299.562,752.377 302,748.5C 303.513,744.229 302.013,741.895 297.5,741.5C 293.439,745.233 290.106,749.567 287.5,754.5C 286.833,754.5 286.5,754.833 286.5,755.5C 283.817,755.337 282.15,754.004 281.5,751.5C 284.858,744.62 288.858,738.12 293.5,732C 297.492,730.823 299.158,732.323 298.5,736.5C 305.798,736.804 309.798,740.471 310.5,747.5 Z"/></g>
<g><path style="opacity:1" fill="#fceecf" d="M 715.5,738.5 C 718.709,741.228 721.209,744.561 723,748.5C 724.213,753.382 723.046,757.548 719.5,761C 716.066,762.061 713.066,763.561 710.5,765.5C 710.5,765.833 710.5,766.167 710.5,766.5C 707.594,769.47 705.094,769.137 703,765.5C 698.155,757.139 693.322,748.806 688.5,740.5C 686.799,737.298 687.799,735.298 691.5,734.5C 694.806,737.767 697.639,741.433 700,745.5C 702.403,737.049 707.57,734.715 715.5,738.5 Z"/></g>
<g><path style="opacity:1" fill="#510413" d="M 715.5,749.5 C 716.982,755.194 714.648,757.694 708.5,757C 707.29,755.961 706.29,754.794 705.5,753.5C 705.458,751.333 705.791,749 706.5,746.5C 710.648,744.78 713.481,746.113 715,750.5C 715.399,750.272 715.565,749.938 715.5,749.5 Z"/></g>
<g><path style="opacity:1" fill="#3c1b1a" d="M 715.5,749.5 C 715.565,749.938 715.399,750.272 715,750.5C 713.481,746.113 710.648,744.78 706.5,746.5C 705.791,749 705.458,751.333 705.5,753.5C 702.513,749.957 702.846,746.791 706.5,744C 711.072,743.285 714.072,745.118 715.5,749.5 Z"/></g>
<g><path style="opacity:1" fill="#f9edd9" d="M 326.5,772.5 C 327.625,773.652 327.625,774.652 326.5,775.5C 325.729,773.227 324.396,772.894 322.5,774.5C 312.792,771.952 310.958,766.619 317,758.5C 317.278,759.416 317.778,760.082 318.5,760.5C 321.166,762.008 323.833,763.174 326.5,764C 327.395,760.64 326.061,758.473 322.5,757.5C 322.082,756.778 321.416,756.278 320.5,756C 324.565,755.866 327.565,757.699 329.5,761.5C 328.603,764.565 326.603,766.398 323.5,767C 325.651,768.895 327.984,769.395 330.5,768.5C 333.8,757.636 329.8,752.47 318.5,753C 312.267,756.301 309.267,761.467 309.5,768.5C 310.5,768.5 311.5,768.5 312.5,768.5C 312.104,771.044 312.771,773.211 314.5,775C 318.06,776.237 321.727,776.737 325.5,776.5C 325.5,776.833 325.5,777.167 325.5,777.5C 318.732,779.453 313.399,777.453 309.5,771.5C 308.612,768.946 308.279,766.279 308.5,763.5C 311.876,752.143 318.876,748.977 329.5,754C 333.858,758.494 334.691,763.661 332,769.5C 331.261,770.574 330.261,771.241 329,771.5C 324.716,769.383 320.549,767.05 316.5,764.5C 314.948,767.567 315.615,770.067 318.5,772C 321.146,772.497 323.813,772.664 326.5,772.5 Z"/></g>
<g><path style="opacity:1" fill="#460810" d="M 688.5,740.5 C 693.322,748.806 698.155,757.139 703,765.5C 705.094,769.137 707.594,769.47 710.5,766.5C 711.033,768.687 710.199,770.687 708,772.5C 705.46,771.457 703.126,770.791 701,770.5C 697.509,779.283 691.009,783.616 681.5,783.5C 678.496,781.77 675.496,781.103 672.5,781.5C 668.894,773.955 665.561,766.288 662.5,758.5C 665.76,763.598 669.093,769.264 672.5,775.5C 672.833,775.333 673.167,775.167 673.5,775C 670.527,770.712 669.861,766.212 671.5,761.5C 671.248,770.723 675.415,776.723 684,779.5C 689.651,778.847 693.984,776.18 697,771.5C 697.758,769.231 697.591,767.064 696.5,765C 695.365,764.251 694.365,764.417 693.5,765.5C 692.42,770.081 689.587,772.748 685,773.5C 682.914,773.081 681.414,771.914 680.5,770C 685.21,767.895 689.71,765.395 694,762.5C 694.348,758.81 692.848,755.977 689.5,754C 681.66,750.589 675.993,752.756 672.5,760.5C 671.957,760.44 671.624,760.107 671.5,759.5C 672.167,758.167 672.833,756.833 673.5,755.5C 672.975,754.808 672.308,754.308 671.5,754C 674.79,753.747 677.79,752.747 680.5,751C 682.81,750.503 685.143,750.337 687.5,750.5C 687.281,749.325 687.614,748.325 688.5,747.5C 688.296,748.529 688.796,749.529 690,750.5C 690.692,749.975 691.192,749.308 691.5,748.5C 690.167,746.167 688.833,743.833 687.5,741.5C 687.624,740.893 687.957,740.56 688.5,740.5 Z"/></g>
<g><path style="opacity:1" fill="#faecd0" d="M 671.5,761.5 C 672.167,761.5 672.5,761.167 672.5,760.5C 675.993,752.756 681.66,750.589 689.5,754C 692.848,755.977 694.348,758.81 694,762.5C 689.71,765.395 685.21,767.895 680.5,770C 681.414,771.914 682.914,773.081 685,773.5C 689.587,772.748 692.42,770.081 693.5,765.5C 694.365,764.417 695.365,764.251 696.5,765C 697.591,767.064 697.758,769.231 697,771.5C 693.984,776.18 689.651,778.847 684,779.5C 675.415,776.723 671.248,770.723 671.5,761.5 Z"/></g>
<g><path style="opacity:1" fill="#441013" d="M 680.5,757.5 C 682.199,757.34 683.866,757.506 685.5,758C 686.022,758.561 686.355,759.228 686.5,760C 684.053,762.557 681.053,764.057 677.5,764.5C 677.15,761.547 678.15,759.213 680.5,757.5 Z"/></g>
<g><path style="opacity:1" fill="#38080b" d="M 311.5,743.5 C 312.966,746.595 312.632,749.595 310.5,752.5C 311,752.833 311.5,753.167 312,753.5C 320.693,747.393 328.027,748.727 334,757.5C 335.509,760.329 335.675,763.162 334.5,766C 336.019,765.669 337.352,765.836 338.5,766.5C 332.418,771.644 330.918,777.977 334,785.5C 338.965,792.136 344.798,793.136 351.5,788.5C 352.55,788.905 352.55,789.571 351.5,790.5C 342.017,795.018 335.183,792.352 331,782.5C 330.457,779.132 330.624,775.799 331.5,772.5C 329.833,772.5 328.167,772.5 326.5,772.5C 323.813,772.664 321.146,772.497 318.5,772C 315.615,770.067 314.948,767.567 316.5,764.5C 320.549,767.05 324.716,769.383 329,771.5C 330.261,771.241 331.261,770.574 332,769.5C 334.691,763.661 333.858,758.494 329.5,754C 318.876,748.977 311.876,752.143 308.5,763.5C 307.698,764.952 307.198,766.618 307,768.5C 306.225,763.655 307.392,759.322 310.5,755.5C 310.167,755.167 309.833,754.833 309.5,754.5C 307.136,757.699 304.97,761.032 303,764.5C 302.31,765.738 301.81,765.738 301.5,764.5C 304.767,758.965 307.767,753.298 310.5,747.5C 311.434,746.432 311.768,745.099 311.5,743.5 Z"/></g>
<g><path style="opacity:1" fill="#fceed1" d="M 662.5,758.5 C 665.561,766.288 668.894,773.955 672.5,781.5C 673.904,785.837 672.237,787.671 667.5,787C 666.934,786.005 666.267,785.172 665.5,784.5C 662.773,777.38 659.773,770.38 656.5,763.5C 655.651,760.965 654.651,758.465 653.5,756C 654.532,752.745 656.532,751.912 659.5,753.5C 660.275,755.396 661.275,757.063 662.5,758.5 Z"/></g>
<g><path style="opacity:1" fill="#fcefd1" d="M 654.5,772.5 C 656.541,774.903 657.708,777.57 658,780.5C 653.314,783.119 648.48,785.452 643.5,787.5C 644.741,790.144 646.741,790.977 649.5,790C 652.961,788.695 655.628,786.529 657.5,783.5C 659.28,784.99 659.946,786.99 659.5,789.5C 651.131,799.089 643.298,798.756 636,788.5C 634.763,784.94 634.263,781.273 634.5,777.5C 639.417,769.012 646.083,767.345 654.5,772.5 Z"/></g>
<g><path style="opacity:1" fill="#2d0606" d="M 309.5,771.5 C 313.399,777.453 318.732,779.453 325.5,777.5C 326.239,777.369 326.906,777.536 327.5,778C 320.31,781.279 314.143,779.779 309,773.5C 308.308,772.563 308.475,771.897 309.5,771.5 Z"/></g>
<g><path style="opacity:1" fill="#fceec7" d="M 322.5,757.5 C 320.027,757.088 318.694,758.088 318.5,760.5C 317.778,760.082 317.278,759.416 317,758.5C 310.958,766.619 312.792,771.952 322.5,774.5C 324.396,772.894 325.729,773.227 326.5,775.5C 326.5,776.167 326.167,776.5 325.5,776.5C 321.727,776.737 318.06,776.237 314.5,775C 312.771,773.211 312.104,771.044 312.5,768.5C 311.5,768.5 310.5,768.5 309.5,768.5C 309.267,761.467 312.267,756.301 318.5,753C 329.8,752.47 333.8,757.636 330.5,768.5C 327.984,769.395 325.651,768.895 323.5,767C 326.603,766.398 328.603,764.565 329.5,761.5C 327.565,757.699 324.565,755.866 320.5,756C 321.416,756.278 322.082,756.778 322.5,757.5 Z"/></g>
<g><path style="opacity:1" fill="#410f11" d="M 322.5,757.5 C 326.061,758.473 327.395,760.64 326.5,764C 323.833,763.174 321.166,762.008 318.5,760.5C 318.694,758.088 320.027,757.088 322.5,757.5 Z"/></g>
<g><path style="opacity:1" fill="#331010" d="M 643.5,775.5 C 646.969,774.887 648.969,776.221 649.5,779.5C 646.5,780.167 643.5,780.833 640.5,781.5C 640.615,779.053 641.615,777.053 643.5,775.5 Z"/></g>
<g><path style="opacity:1" fill="#fbeccd" d="M 351.5,788.5 C 344.798,793.136 338.965,792.136 334,785.5C 330.918,777.977 332.418,771.644 338.5,766.5C 345.041,763.214 350.874,764.214 356,769.5C 357.631,771.955 357.797,774.455 356.5,777C 355.167,777.667 353.833,777.667 352.5,777C 350.987,771.678 347.654,770.178 342.5,772.5C 339.693,775.278 338.86,778.611 340,782.5C 341.351,784.01 343.018,785.01 345,785.5C 346.895,783.818 349.062,783.318 351.5,784C 352.728,785.49 352.728,786.99 351.5,788.5 Z"/></g>
<g><path style="opacity:1" fill="#faead3" d="M 440.5,790.5 C 436.251,793.717 433.584,792.717 432.5,787.5C 434.496,785.667 436.829,785.167 439.5,786C 440.38,787.356 440.714,788.856 440.5,790.5 Z"/></g>
<g><path style="opacity:1" fill="#3b0b0f" d="M 656.5,763.5 C 659.773,770.38 662.773,777.38 665.5,784.5C 665.631,785.239 665.464,785.906 665,786.5C 663.333,784.167 661.667,781.833 660,779.5C 659.52,781.133 658.687,782.466 657.5,783.5C 655.628,786.529 652.961,788.695 649.5,790C 646.741,790.977 644.741,790.144 643.5,787.5C 648.48,785.452 653.314,783.119 658,780.5C 657.708,777.57 656.541,774.903 654.5,772.5C 654.435,772.062 654.601,771.728 655,771.5C 656.333,772.833 657.667,774.167 659,775.5C 658.47,771.738 657.303,768.071 655.5,764.5C 655.624,763.893 655.957,763.56 656.5,763.5 Z"/></g>
<g><path style="opacity:1" fill="#4a0914" d="M 634.5,777.5 C 634.263,781.273 634.763,784.94 636,788.5C 643.298,798.756 651.131,799.089 659.5,789.5C 660.043,789.56 660.376,789.893 660.5,790.5C 659.5,791.833 658.5,793.167 657.5,794.5C 657.709,795.086 658.043,795.586 658.5,796C 655.596,798.564 652.429,799.731 649,799.5C 644.931,798.212 641.097,796.545 637.5,794.5C 636.833,795.167 636.167,795.833 635.5,796.5C 635.853,794.365 635.02,793.032 633,792.5C 630.475,794.029 628.642,796.196 627.5,799C 622.404,800.58 619.237,798.746 618,793.5C 616.877,790.044 617.71,787.21 620.5,785C 623.514,784.872 626.514,784.872 629.5,785C 630.868,781.504 629.534,779.67 625.5,779.5C 624.048,778.698 622.382,778.198 620.5,778C 625.504,776.775 629.337,778.275 632,782.5C 632.757,780.685 633.59,779.019 634.5,777.5 Z"/></g>
<g><path style="opacity:1" fill="#fcedce" d="M 369.5,797.5 C 367.593,800.332 364.927,801.166 361.5,800C 359.341,798.941 357.674,797.441 356.5,795.5C 356.743,789.434 358.41,783.768 361.5,778.5C 359.914,776.827 359.247,774.827 359.5,772.5C 360.978,772.762 362.311,772.429 363.5,771.5C 364.733,766.73 367.4,765.564 371.5,768C 371.964,770.405 372.131,772.905 372,775.5C 374.91,776.45 376.077,778.45 375.5,781.5C 373.085,781.373 370.751,781.207 368.5,781C 365.981,784.847 364.815,789.014 365,793.5C 366.067,794.191 367.234,794.691 368.5,795C 369.252,795.671 369.586,796.504 369.5,797.5 Z"/></g>
<g><path style="opacity:1" fill="#460b13" d="M 577.5,793.5 C 575.724,793.794 573.724,793.96 571.5,794C 570.919,794.893 570.585,795.893 570.5,797C 572.029,804.144 573.362,811.311 574.5,818.5C 576.467,818.739 578.301,818.406 580,817.5C 580.294,812.084 579.961,806.751 579,801.5C 580.5,799.531 582.333,798.198 584.5,797.5C 585.302,796.048 585.802,794.382 586,792.5C 586.908,796.489 586.241,800.155 584,803.5C 583.333,802.167 582.667,802.167 582,803.5C 581.685,808.838 581.852,814.172 582.5,819.5C 576.123,822.266 572.29,820.266 571,813.5C 570.652,816.958 569.152,819.791 566.5,822C 561.57,823.614 556.904,825.114 552.5,826.5C 550.813,826.24 549.313,825.573 548,824.5C 547.482,821.977 546.148,819.977 544,818.5C 543.598,817.128 543.098,815.795 542.5,814.5C 542.624,813.893 542.957,813.56 543.5,813.5C 548.235,823.19 555.235,825.023 564.5,819C 565.627,817.247 566.627,815.413 567.5,813.5C 567.113,812.28 566.28,811.613 565,811.5C 563.225,812.27 561.725,813.437 560.5,815C 557.833,815.667 555.167,815.667 552.5,815C 551.643,814.311 550.977,813.478 550.5,812.5C 555.99,811.134 561.49,809.801 567,808.5C 566.182,798.363 560.682,794.196 550.5,796C 546.586,797.993 544.252,801.16 543.5,805.5C 542.686,807.631 542.186,809.964 542,812.5C 541.667,810.5 541.333,808.5 541,806.5C 539.531,811.905 537.865,817.239 536,822.5C 535.583,823.756 534.75,824.423 533.5,824.5C 534.371,821.888 535.037,819.221 535.5,816.5C 538.456,810.659 540.122,804.659 540.5,798.5C 539.048,797.698 537.382,797.198 535.5,797C 541.125,795.329 543.625,797.162 543,802.5C 546.473,794.905 552.306,792.405 560.5,795C 561.416,795.374 562.25,795.874 563,796.5C 564.483,791.813 566.483,791.48 569,795.5C 571.063,791.108 573.897,790.441 577.5,793.5 Z"/></g>
<g><path style="opacity:1" fill="#fbedd2" d="M 625.5,779.5 C 629.534,779.67 630.868,781.504 629.5,785C 626.514,784.872 623.514,784.872 620.5,785C 617.71,787.21 616.877,790.044 618,793.5C 619.237,798.746 622.404,800.58 627.5,799C 628.642,796.196 630.475,794.029 633,792.5C 635.02,793.032 635.853,794.365 635.5,796.5C 632.671,803.74 627.338,806.573 619.5,805C 611.703,800.576 609.036,794.076 611.5,785.5C 613.671,783.5 616.004,781.666 618.5,780C 620.81,779.503 623.143,779.337 625.5,779.5 Z"/></g>
<g><path style="opacity:1" fill="#faedd5" d="M 428.5,784.5 C 426.218,792.577 424.551,800.91 423.5,809.5C 422.717,811.343 422.05,813.343 421.5,815.5C 419.955,816.452 418.288,816.785 416.5,816.5C 415.833,816.5 415.5,816.167 415.5,815.5C 417.167,815.5 418.833,815.5 420.5,815.5C 422.055,809.234 422.888,802.901 423,796.5C 419.679,796.187 416.845,794.354 414.5,791C 410.967,790.097 407.633,790.43 404.5,792C 407.133,791.747 409.8,791.747 412.5,792C 415.079,793.076 416.746,794.909 417.5,797.5C 418.417,810.038 413.417,812.872 402.5,806C 403.347,803.282 404.347,800.616 405.5,798C 403.635,792.122 401.802,792.289 400,798.5C 399.322,802.221 399.489,805.888 400.5,809.5C 399.883,809.389 399.383,809.056 399,808.5C 396.216,798.266 399.716,791.6 409.5,788.5C 413.528,788.563 416.695,790.229 419,793.5C 420.168,789.494 421.335,785.494 422.5,781.5C 424.396,780.534 426.396,780.201 428.5,780.5C 428.5,781.833 428.5,783.167 428.5,784.5 Z"/></g>
<g><path style="opacity:1" fill="#f9f0e0" d="M 432.5,819.5 C 434.651,812.351 436.318,805.018 437.5,797.5C 435.77,795.164 434.27,795.164 433,797.5C 432.221,803.008 431.388,808.508 430.5,814C 430.559,815.436 430.892,816.769 431.5,818C 430.906,818.464 430.239,818.631 429.5,818.5C 428.833,818.5 428.5,818.167 428.5,817.5C 428.368,814.43 428.701,811.43 429.5,808.5C 430.543,804.251 431.376,799.918 432,795.5C 434,794.167 436,794.167 438,795.5C 437.502,803.506 436.668,811.506 435.5,819.5C 434.5,819.5 433.5,819.5 432.5,819.5 Z"/></g>
<g><path style="opacity:1" fill="#fcf0d3" d="M 584.5,797.5 C 582.333,798.198 580.5,799.531 579,801.5C 579.961,806.751 580.294,812.084 580,817.5C 578.301,818.406 576.467,818.739 574.5,818.5C 573.362,811.311 572.029,804.144 570.5,797C 570.585,795.893 570.919,794.893 571.5,794C 573.724,793.96 575.724,793.794 577.5,793.5C 579.479,791.832 581.812,791.166 584.5,791.5C 584.5,793.5 584.5,795.5 584.5,797.5 Z"/></g>
<g><path style="opacity:1" fill="#f6e7da" d="M 527.5,809.5 C 524.757,808.069 523.091,805.735 522.5,802.5C 520.693,801.201 519.027,801.368 517.5,803C 520.913,809.827 524.579,816.494 528.5,823C 529.944,823.781 531.277,823.614 532.5,822.5C 533.136,820.22 534.136,818.22 535.5,816.5C 535.037,819.221 534.371,821.888 533.5,824.5C 529.805,826.243 527.139,825.243 525.5,821.5C 522.513,815.527 519.513,809.527 516.5,803.5C 517.045,800.056 519.045,798.889 522.5,800C 524.292,803.083 525.959,806.25 527.5,809.5 Z"/></g>
<g><path style="opacity:1" fill="#31090a" d="M 611.5,785.5 C 609.036,794.076 611.703,800.576 619.5,805C 627.338,806.573 632.671,803.74 635.5,796.5C 636.167,795.833 636.833,795.167 637.5,794.5C 637.034,799.809 634.367,803.643 629.5,806C 615.743,807.579 608.91,801.412 609,787.5C 609.915,786.672 610.581,785.672 611,784.5C 611.399,784.728 611.565,785.062 611.5,785.5 Z"/></g>
<g><path style="opacity:1" fill="#f9ebd3" d="M 499.5,799.5 C 507.968,798.726 513.301,802.393 515.5,810.5C 515.5,812.833 515.5,815.167 515.5,817.5C 510.379,828.258 502.879,830.258 493,823.5C 489.604,818.892 488.771,813.892 490.5,808.5C 491.737,807.035 492.737,805.368 493.5,803.5C 495.537,802.154 497.537,800.82 499.5,799.5 Z"/></g>
<g><path style="opacity:1" fill="#fdefc7" d="M 505.5,806.5 C 504.167,806.5 502.833,806.5 501.5,806.5C 502.263,805.732 503.263,805.232 504.5,805C 503.027,804.29 502.36,803.124 502.5,801.5C 510.095,801.761 514.095,805.761 514.5,813.5C 512.109,825.528 505.443,828.695 494.5,823C 490.399,816.999 490.566,811.166 495,805.5C 495.5,806.5 496,807.5 496.5,808.5C 495.555,812.448 494.888,816.448 494.5,820.5C 498.49,821.19 502.49,821.357 506.5,821C 511.314,816.275 511.647,811.275 507.5,806C 506.563,805.308 505.897,805.475 505.5,806.5 Z"/></g>
<g><path style="opacity:1" fill="#fceecb" d="M 540.5,798.5 C 540.122,804.659 538.456,810.659 535.5,816.5C 534.136,818.22 533.136,820.22 532.5,822.5C 531.277,823.614 529.944,823.781 528.5,823C 524.579,816.494 520.913,809.827 517.5,803C 519.027,801.368 520.693,801.201 522.5,802.5C 523.091,805.735 524.757,808.069 527.5,809.5C 528.046,811.303 528.88,812.97 530,814.5C 531.538,809.385 533.372,804.385 535.5,799.5C 537.045,798.548 538.712,798.215 540.5,798.5 Z"/></g>
<g><path style="opacity:1" fill="#430810" d="M 356.5,795.5 C 357.674,797.441 359.341,798.941 361.5,800C 364.927,801.166 367.593,800.332 369.5,797.5C 370.807,796.847 372.14,796.18 373.5,795.5C 374.107,795.624 374.44,795.957 374.5,796.5C 372.705,799.404 370.872,802.404 369,805.5C 368.51,806.793 368.343,808.127 368.5,809.5C 375.209,808.791 378.876,805.124 379.5,798.5C 380.622,800.288 380.789,802.288 380,804.5C 377.23,806.601 375.23,809.268 374,812.5C 369.392,812.81 366.726,810.477 366,805.5C 365.667,805.833 365.333,806.167 365,806.5C 364.16,803.536 363.16,803.203 362,805.5C 361.152,801.983 359.152,799.316 356,797.5C 355.308,796.563 355.475,795.897 356.5,795.5 Z"/></g>
<g><path style="opacity:1" fill="#f6e4d6" d="M 453.5,796.5 C 455.703,796.604 457.703,797.27 459.5,798.5C 461.834,800.176 462.834,802.509 462.5,805.5C 459.039,806.111 456.372,804.944 454.5,802C 453.207,801.51 451.873,801.343 450.5,801.5C 451.312,800.367 452.979,800.2 455.5,801C 456.685,802.353 458.019,803.52 459.5,804.5C 460.614,803.277 460.781,801.944 460,800.5C 455.745,797.428 451.245,796.928 446.5,799C 442.5,802.333 442.5,805.667 446.5,809C 449.044,810.092 451.711,810.759 454.5,811C 455.177,812.67 455.177,814.504 454.5,816.5C 454.5,815.5 454.5,814.5 454.5,813.5C 450.054,812.694 446.221,810.694 443,807.5C 441.844,799.488 445.344,795.821 453.5,796.5 Z"/></g>
<g><path style="opacity:1" fill="#3f0d11" d="M 459.5,798.5 C 461.267,797.35 462.433,798.017 463,800.5C 463.744,803.871 463.244,807.037 461.5,810C 462,810.5 462.5,811 463,811.5C 465.785,798.567 473.285,794.733 485.5,800C 487.293,801.78 488.96,803.613 490.5,805.5C 491.333,804.5 492.167,803.5 493,802.5C 493.399,802.728 493.565,803.062 493.5,803.5C 492.737,805.368 491.737,807.035 490.5,808.5C 489.167,808.833 487.833,809.167 486.5,809.5C 487.977,806.239 487.311,803.406 484.5,801C 476.94,796.967 470.773,798.467 466,805.5C 465.047,808.432 464.547,811.432 464.5,814.5C 463.778,814.082 463.278,813.416 463,812.5C 462.79,814.058 462.29,815.391 461.5,816.5C 461.66,814.801 461.494,813.134 461,811.5C 458.038,808.601 454.538,806.601 450.5,805.5C 449.374,804.192 449.374,802.858 450.5,801.5C 451.873,801.343 453.207,801.51 454.5,802C 456.372,804.944 459.039,806.111 462.5,805.5C 462.834,802.509 461.834,800.176 459.5,798.5 Z"/></g>
<g><path style="opacity:1" fill="#faeedb" d="M 374.5,796.5 C 376.514,796.392 378.18,797.058 379.5,798.5C 378.876,805.124 375.209,808.791 368.5,809.5C 368.343,808.127 368.51,806.793 369,805.5C 370.872,802.404 372.705,799.404 374.5,796.5 Z"/></g>
<g><path style="opacity:1" fill="#fcedc8" d="M 415.5,815.5 C 414.778,815.082 414.278,814.416 414,813.5C 409.114,815.199 404.614,814.532 400.5,811.5C 400.5,810.833 400.5,810.167 400.5,809.5C 399.489,805.888 399.322,802.221 400,798.5C 401.802,792.289 403.635,792.122 405.5,798C 404.347,800.616 403.347,803.282 402.5,806C 413.417,812.872 418.417,810.038 417.5,797.5C 416.746,794.909 415.079,793.076 412.5,792C 409.8,791.747 407.133,791.747 404.5,792C 407.633,790.43 410.967,790.097 414.5,791C 416.845,794.354 419.679,796.187 423,796.5C 422.888,802.901 422.055,809.234 420.5,815.5C 418.833,815.5 417.167,815.5 415.5,815.5 Z"/></g>
<g><path style="opacity:1" fill="#4e0a15" d="M 417.5,797.5 C 417.443,801.505 416.11,805.005 413.5,808C 408.248,809.856 405.581,808.022 405.5,802.5C 406.957,794.16 410.957,792.493 417.5,797.5 Z"/></g>
<g><path style="opacity:1" fill="#470b13" d="M 428.5,784.5 C 429.314,786.631 429.814,788.964 430,791.5C 430.29,789.081 431.124,787.747 432.5,787.5C 433.584,792.717 436.251,793.717 440.5,790.5C 442.606,792.326 443.773,794.326 444,796.5C 447.116,794.548 450.283,794.548 453.5,796.5C 445.344,795.821 441.844,799.488 443,807.5C 446.221,810.694 450.054,812.694 454.5,813.5C 454.5,814.5 454.5,815.5 454.5,816.5C 453.054,817.613 451.387,817.78 449.5,817C 447.164,814.167 444.164,813 440.5,813.5C 440.372,815.655 440.872,817.655 442,819.5C 444.255,821.499 446.755,822.832 449.5,823.5C 448.833,823.5 448.167,823.5 447.5,823.5C 443.088,822.93 439.922,820.597 438,816.5C 436.626,818.824 436.293,821.157 437,823.5C 434.958,823.182 432.791,823.015 430.5,823C 431.167,822.667 431.833,822.333 432.5,822C 428.71,821.23 426.877,819.063 427,815.5C 427.278,816.416 427.778,817.082 428.5,817.5C 428.5,818.167 428.833,818.5 429.5,818.5C 430.209,819.404 431.209,819.737 432.5,819.5C 433.5,819.5 434.5,819.5 435.5,819.5C 436.668,811.506 437.502,803.506 438,795.5C 436,794.167 434,794.167 432,795.5C 431.376,799.918 430.543,804.251 429.5,808.5C 429.072,803.237 429.072,797.903 429.5,792.5C 428.914,792.709 428.414,793.043 428,793.5C 426.922,799.557 425.589,805.557 424,811.5C 423.536,810.906 423.369,810.239 423.5,809.5C 424.551,800.91 426.218,792.577 428.5,784.5 Z"/></g>
<g><path style="opacity:1" fill="#fbedd0" d="M 486.5,809.5 C 486.167,809.5 485.833,809.5 485.5,809.5C 482.886,809.723 481.219,808.556 480.5,806C 473.24,804.967 470.407,808.133 472,815.5C 472.796,817.967 474.463,819.3 477,819.5C 479.692,818.901 482.192,817.901 484.5,816.5C 485.584,816.685 486.584,817.018 487.5,817.5C 486.857,820.988 484.857,823.488 481.5,825C 472.585,826.551 466.918,823.051 464.5,814.5C 464.547,811.432 465.047,808.432 466,805.5C 470.773,798.467 476.94,796.967 484.5,801C 487.311,803.406 487.977,806.239 486.5,809.5 Z"/></g>
<g><path style="opacity:1" fill="#fdedc6" d="M 432.5,819.5 C 431.209,819.737 430.209,819.404 429.5,818.5C 430.239,818.631 430.906,818.464 431.5,818C 430.892,816.769 430.559,815.436 430.5,814C 431.388,808.508 432.221,803.008 433,797.5C 434.27,795.164 435.77,795.164 437.5,797.5C 436.318,805.018 434.651,812.351 432.5,819.5 Z"/></g>
<g><path style="opacity:1" fill="#fae9d1" d="M 591.5,805.5 C 595.531,805.034 597.531,806.867 597.5,811C 596.997,814.009 595.997,816.842 594.5,819.5C 593.311,820.429 591.978,820.762 590.5,820.5C 590.68,816.785 590.346,813.118 589.5,809.5C 589.752,807.927 590.418,806.594 591.5,805.5 Z"/></g>
<g><path style="opacity:1" fill="#4c0612" d="M 501.5,806.5 C 502.833,806.5 504.167,806.5 505.5,806.5C 506.79,807.058 507.623,808.058 508,809.5C 508.667,812.167 508.667,814.833 508,817.5C 502.189,822.303 498.689,820.969 497.5,813.5C 497.081,809.988 498.414,807.654 501.5,806.5 Z"/></g>
<g><path style="opacity:1" fill="#4e0614" d="M 485.5,809.5 C 485.082,810.222 484.416,810.722 483.5,811C 485.112,811.72 486.612,811.554 488,810.5C 488.703,812.929 488.537,815.262 487.5,817.5C 486.584,817.018 485.584,816.685 484.5,816.5C 482.192,817.901 479.692,818.901 477,819.5C 474.463,819.3 472.796,817.967 472,815.5C 470.407,808.133 473.24,804.967 480.5,806C 481.219,808.556 482.886,809.723 485.5,809.5 Z"/></g>
<g><path style="opacity:1" fill="#fcedcb" d="M 450.5,801.5 C 449.374,802.858 449.374,804.192 450.5,805.5C 454.538,806.601 458.038,808.601 461,811.5C 461.494,813.134 461.66,814.801 461.5,816.5C 459.467,821.86 455.467,824.194 449.5,823.5C 446.755,822.832 444.255,821.499 442,819.5C 440.872,817.655 440.372,815.655 440.5,813.5C 444.164,813 447.164,814.167 449.5,817C 451.387,817.78 453.054,817.613 454.5,816.5C 455.177,814.504 455.177,812.67 454.5,811C 451.711,810.759 449.044,810.092 446.5,809C 442.5,805.667 442.5,802.333 446.5,799C 451.245,796.928 455.745,797.428 460,800.5C 460.781,801.944 460.614,803.277 459.5,804.5C 458.019,803.52 456.685,802.353 455.5,801C 452.979,800.2 451.312,800.367 450.5,801.5 Z"/></g>
<g><path style="opacity:1" fill="#faeacc" d="M 543.5,813.5 C 543.5,810.833 543.5,808.167 543.5,805.5C 544.252,801.16 546.586,797.993 550.5,796C 560.682,794.196 566.182,798.363 567,808.5C 561.49,809.801 555.99,811.134 550.5,812.5C 550.977,813.478 551.643,814.311 552.5,815C 555.167,815.667 557.833,815.667 560.5,815C 561.725,813.437 563.225,812.27 565,811.5C 566.28,811.613 567.113,812.28 567.5,813.5C 566.627,815.413 565.627,817.247 564.5,819C 555.235,825.023 548.235,823.19 543.5,813.5 Z"/></g>
<g><path style="opacity:1" fill="#3b1313" d="M 551.5,801.5 C 554.908,800.828 557.575,801.828 559.5,804.5C 556.294,805.808 552.96,806.475 549.5,806.5C 549.392,804.486 550.058,802.82 551.5,801.5 Z"/></g>
<g><path style="opacity:1" fill="#3a1215" d="M 400.5,811.5 C 404.614,814.532 409.114,815.199 414,813.5C 414.278,814.416 414.778,815.082 415.5,815.5C 415.5,816.167 415.833,816.5 416.5,816.5C 417.609,817.29 418.942,817.79 420.5,818C 419.667,818.167 418.833,818.333 418,818.5C 414.054,816.944 409.887,816.111 405.5,816C 403.833,815 402.167,814 400.5,813C 399.262,812.31 399.262,811.81 400.5,811.5 Z"/></g>
<g><path style="opacity:1" fill="#360a0d" d="M 499.5,799.5 C 502.304,798.362 505.304,798.195 508.5,799C 511.057,799.685 512.891,801.185 514,803.5C 514.333,802.833 514.667,802.167 515,801.5C 515.278,802.416 515.778,803.082 516.5,803.5C 519.513,809.527 522.513,815.527 525.5,821.5C 525.631,822.239 525.464,822.906 525,823.5C 522.921,819.007 520.588,814.674 518,810.5C 517.667,812.5 517.333,814.5 517,816.5C 516.809,814.292 516.309,812.292 515.5,810.5C 513.301,802.393 507.968,798.726 499.5,799.5 Z"/></g>
<g><path style="opacity:1" fill="#2d0908" d="M 490.5,808.5 C 488.771,813.892 489.604,818.892 493,823.5C 502.879,830.258 510.379,828.258 515.5,817.5C 515.606,822.624 512.94,826.124 507.5,828C 498.546,830.936 492.379,828.103 489,819.5C 485.075,826.243 479.241,828.41 471.5,826C 468.027,824.36 465.36,821.86 463.5,818.5C 459.391,824.301 454.058,825.968 447.5,823.5C 448.167,823.5 448.833,823.5 449.5,823.5C 455.467,824.194 459.467,821.86 461.5,816.5C 462.29,815.391 462.79,814.058 463,812.5C 463.278,813.416 463.778,814.082 464.5,814.5C 466.918,823.051 472.585,826.551 481.5,825C 484.857,823.488 486.857,820.988 487.5,817.5C 488.537,815.262 488.703,812.929 488,810.5C 486.612,811.554 485.112,811.72 483.5,811C 484.416,810.722 485.082,810.222 485.5,809.5C 485.833,809.5 486.167,809.5 486.5,809.5C 487.833,809.167 489.167,808.833 490.5,808.5 Z"/></g>
</svg>
